# Blender 5.0.0
# www.blender.org
mtllib logo.mtl
o Trace_Object.002
v -1.384104 0.000000 -0.140368
v -1.231417 0.000000 -0.139171
v -1.623174 0.000000 -0.140407
v -2.005854 0.000000 -0.140468
v -2.005854 -0.000000 0.279776
v -2.005854 -0.000000 0.540232
v -2.004627 -0.000000 0.698901
v -2.002626 -0.000000 0.697077
v -2.000851 -0.000000 0.695459
v -1.916950 -0.000000 0.525511
v -1.816178 -0.000000 0.319415
v -1.632958 0.000000 -0.055304
v -1.511880 0.000000 -0.056118
v -1.445287 0.000000 -0.056566
v -1.390803 0.000000 -0.055869
v -1.390804 0.000000 -0.054570
v -1.390805 0.000000 -0.053271
v -1.416461 -0.000000 0.013148
v -1.447817 -0.000000 0.093026
v -1.479173 -0.000000 0.172905
v -1.504829 -0.000000 0.240045
v -1.504829 -0.000000 0.242226
v -1.504829 -0.000000 0.245187
v -1.496847 -0.000000 0.244278
v -1.473329 -0.000000 0.238637
v -1.456005 -0.000000 0.234482
v -1.429960 -0.000000 0.227422
v -1.415452 -0.000000 0.222948
v -1.400944 -0.000000 0.218474
v -1.375088 -0.000000 0.209309
v -1.357993 -0.000000 0.202582
v -1.340899 -0.000000 0.195854
v -1.316798 -0.000000 0.185338
v -1.304435 -0.000000 0.179213
v -1.292073 -0.000000 0.173088
v -1.270811 -0.000000 0.161399
v -1.257187 -0.000000 0.153237
v -1.243562 -0.000000 0.145076
v -1.222920 -0.000000 0.131316
v -1.211314 -0.000000 0.122660
v -1.199709 -0.000000 0.114004
v -1.181589 -0.000000 0.097596
v -1.171047 -0.000000 0.086198
v -1.160506 -0.000000 0.074799
v -1.145883 -0.000000 0.054324
v -1.138553 -0.000000 0.040698
v -1.131223 -0.000000 0.027072
v -1.123399 -0.000000 0.007396
v -1.121167 0.000000 -0.003027
v -1.118934 0.000000 -0.013450
v -1.117659 0.000000 -0.034396
v -1.118333 0.000000 -0.049575
v -1.119313 0.000000 -0.071674
v -1.121315 0.000000 -0.080232
v -1.128384 0.000000 -0.092533
v -1.133244 0.000000 -0.100990
v -1.143791 0.000000 -0.112392
v -1.151853 0.000000 -0.117903
v -1.159906 0.000000 -0.123408
v -1.172260 0.000000 -0.129302
v -1.179307 0.000000 -0.131000
v -1.186354 0.000000 -0.132698
v -1.203004 0.000000 -0.135496
v -1.216307 0.000000 -0.137217
v -0.956677 0.000000 -0.267992
v -0.985047 0.000000 -0.273189
v -1.013417 0.000000 -0.278386
v -1.055288 0.000000 -0.285090
v -1.078093 0.000000 -0.288089
v -1.115643 0.000000 -0.293025
v -1.161393 0.000000 -0.293635
v -1.562706 0.000000 -0.294546
v -2.005854 0.000000 -0.295553
v -2.005854 0.000000 -0.512212
v -2.005854 0.000000 -0.643572
v -2.004590 0.000000 -0.728871
v -2.002644 0.000000 -0.728871
v -2.000878 0.000000 -0.728871
v -1.747039 0.000000 -0.622178
v -1.438558 0.000000 -0.491776
v -1.130077 0.000000 -0.361373
v -0.876205 0.000000 -0.253370
v -0.874400 0.000000 -0.251769
v -0.872336 0.000000 -0.249939
v -0.872977 0.000000 -0.248997
v -0.876128 0.000000 -0.249231
v -0.878883 0.000000 -0.249436
v -0.892911 0.000000 -0.252785
v -0.907301 0.000000 -0.256672
v -0.921691 0.000000 -0.260560
v -1.684261 -0.000000 0.645995
v -1.637504 -0.000000 0.545188
v -1.722516 -0.000000 0.729457
v -1.722516 -0.000000 0.730661
v -1.722516 -0.000000 0.731864
v -1.386449 -0.000000 0.582247
v -0.975700 -0.000000 0.398179
v -0.564952 -0.000000 0.214111
v -0.230258 -0.000000 0.062409
v -0.231936 -0.000000 0.061064
v -0.233614 -0.000000 0.059719
v -0.357221 -0.000000 0.000585
v -0.506617 0.000000 -0.070345
v -0.656013 0.000000 -0.141275
v -0.779746 0.000000 -0.199308
v -0.781579 0.000000 -0.199308
v -0.783412 0.000000 -0.199308
v -0.788177 0.000000 -0.196173
v -0.792168 0.000000 -0.192340
v -0.796159 0.000000 -0.188508
v -0.800311 0.000000 -0.181889
v -0.801393 0.000000 -0.177630
v -0.802476 0.000000 -0.173372
v -0.805766 0.000000 -0.150722
v -0.808704 0.000000 -0.127297
v -0.811642 0.000000 -0.103872
v -0.817028 0.000000 -0.074257
v -0.820673 0.000000 -0.061487
v -0.824317 0.000000 -0.048716
v -0.835914 0.000000 -0.023287
v -0.846443 0.000000 -0.004978
v -0.856973 -0.000000 0.013331
v -0.875646 -0.000000 0.040853
v -0.887939 -0.000000 0.056182
v -0.900232 -0.000000 0.071512
v -0.922160 -0.000000 0.095602
v -0.936669 -0.000000 0.109716
v -0.951178 -0.000000 0.123830
v -0.975717 -0.000000 0.144922
v -0.991200 -0.000000 0.156588
v -1.006684 -0.000000 0.168254
v -1.032535 -0.000000 0.185693
v -1.048648 -0.000000 0.195342
v -1.064760 -0.000000 0.204991
v -1.100523 -0.000000 0.223126
v -1.128121 -0.000000 0.235642
v -1.155718 -0.000000 0.248157
v -1.197723 -0.000000 0.265711
v -1.221465 -0.000000 0.274649
v -1.245207 -0.000000 0.283587
v -1.291854 -0.000000 0.298943
v -1.325126 -0.000000 0.308773
v -1.358397 -0.000000 0.318602
v -1.413607 -0.000000 0.332905
v -1.447815 -0.000000 0.340556
v -1.482023 -0.000000 0.348207
v -1.519570 -0.000000 0.356140
v -1.531252 -0.000000 0.358185
v -1.552493 -0.000000 0.361903
v -1.922062 -0.000000 0.801071
v -1.867806 -0.000000 0.801132
v -2.005854 -0.000000 0.800977
v -2.005854 -0.000000 0.830397
v -2.005854 -0.000000 0.846578
v -2.004688 -0.000000 0.859811
v -2.003263 -0.000000 0.859803
v -2.001837 -0.000000 0.859796
v -1.966644 -0.000000 0.847916
v -1.925055 -0.000000 0.833402
v -1.883466 -0.000000 0.818889
v -1.846925 -0.000000 0.805698
v -1.843854 -0.000000 0.804089
v -1.840238 -0.000000 0.802196
v -1.384104 -0.112465 -0.140368
v -1.231417 -0.112465 -0.139171
v -1.623174 -0.112465 -0.140407
v -2.005854 -0.112465 -0.140468
v -2.005854 -0.112465 0.279776
v -2.005854 -0.112465 0.540232
v -2.004627 -0.112465 0.698901
v -2.002626 -0.112465 0.697077
v -2.000851 -0.112465 0.695459
v -1.916950 -0.112465 0.525511
v -1.816178 -0.112465 0.319415
v -1.632958 -0.112465 -0.055304
v -1.511880 -0.112465 -0.056118
v -1.445287 -0.112465 -0.056566
v -1.390803 -0.112465 -0.055869
v -1.390804 -0.112465 -0.054570
v -1.390805 -0.112465 -0.053271
v -1.416461 -0.112465 0.013148
v -1.447817 -0.112465 0.093026
v -1.479173 -0.112465 0.172905
v -1.504829 -0.112465 0.240045
v -1.504829 -0.112465 0.242226
v -1.504829 -0.112465 0.245187
v -1.496847 -0.112465 0.244278
v -1.473329 -0.112465 0.238637
v -1.456005 -0.112465 0.234482
v -1.429960 -0.112465 0.227422
v -1.415452 -0.112465 0.222948
v -1.400944 -0.112465 0.218474
v -1.375088 -0.112465 0.209309
v -1.357993 -0.112465 0.202582
v -1.340899 -0.112465 0.195854
v -1.316798 -0.112465 0.185338
v -1.304435 -0.112465 0.179213
v -1.292073 -0.112465 0.173088
v -1.270811 -0.112465 0.161399
v -1.257187 -0.112465 0.153237
v -1.243562 -0.112465 0.145076
v -1.222920 -0.112465 0.131316
v -1.211314 -0.112465 0.122660
v -1.199709 -0.112465 0.114004
v -1.181589 -0.112465 0.097596
v -1.171047 -0.112465 0.086197
v -1.160506 -0.112465 0.074799
v -1.145883 -0.112465 0.054324
v -1.138553 -0.112465 0.040698
v -1.131223 -0.112465 0.027072
v -1.123399 -0.112465 0.007396
v -1.121167 -0.112465 -0.003027
v -1.118934 -0.112465 -0.013450
v -1.117659 -0.112465 -0.034396
v -1.118333 -0.112465 -0.049575
v -1.119313 -0.112465 -0.071674
v -1.121315 -0.112465 -0.080232
v -1.128384 -0.112465 -0.092533
v -1.133244 -0.112465 -0.100990
v -1.143791 -0.112465 -0.112392
v -1.151853 -0.112465 -0.117903
v -1.159906 -0.112465 -0.123408
v -1.172260 -0.112465 -0.129302
v -1.179307 -0.112465 -0.131000
v -1.186354 -0.112465 -0.132698
v -1.203004 -0.112465 -0.135496
v -1.216307 -0.112465 -0.137217
v -0.956677 -0.112465 -0.267992
v -0.985047 -0.112465 -0.273189
v -1.013417 -0.112465 -0.278386
v -1.055288 -0.112465 -0.285090
v -1.078093 -0.112465 -0.288089
v -1.115643 -0.112465 -0.293025
v -1.161393 -0.112465 -0.293635
v -1.562706 -0.112465 -0.294546
v -2.005854 -0.112465 -0.295553
v -2.005854 -0.112465 -0.512212
v -2.005854 -0.112465 -0.643572
v -2.004590 -0.112465 -0.728871
v -2.002644 -0.112465 -0.728871
v -2.000878 -0.112465 -0.728871
v -1.747039 -0.112465 -0.622178
v -1.438558 -0.112465 -0.491776
v -1.130077 -0.112465 -0.361373
v -0.876205 -0.112465 -0.253370
v -0.874400 -0.112465 -0.251769
v -0.872336 -0.112465 -0.249939
v -0.872977 -0.112465 -0.248997
v -0.876128 -0.112465 -0.249231
v -0.878883 -0.112465 -0.249436
v -0.892911 -0.112465 -0.252785
v -0.907301 -0.112465 -0.256672
v -0.921691 -0.112465 -0.260560
v -1.684261 -0.112465 0.645995
v -1.637504 -0.112465 0.545188
v -1.722516 -0.112465 0.729457
v -1.722516 -0.112465 0.730661
v -1.722516 -0.112465 0.731864
v -1.386449 -0.112465 0.582247
v -0.975700 -0.112465 0.398179
v -0.564952 -0.112465 0.214111
v -0.230258 -0.112465 0.062409
v -0.231936 -0.112465 0.061064
v -0.233614 -0.112465 0.059719
v -0.357221 -0.112465 0.000585
v -0.506617 -0.112465 -0.070345
v -0.656013 -0.112465 -0.141275
v -0.779746 -0.112465 -0.199308
v -0.781579 -0.112465 -0.199308
v -0.783412 -0.112465 -0.199308
v -0.788177 -0.112465 -0.196173
v -0.792168 -0.112465 -0.192340
v -0.796159 -0.112465 -0.188508
v -0.800311 -0.112465 -0.181889
v -0.801393 -0.112465 -0.177630
v -0.802476 -0.112465 -0.173372
v -0.805766 -0.112465 -0.150722
v -0.808704 -0.112465 -0.127297
v -0.811642 -0.112465 -0.103872
v -0.817028 -0.112465 -0.074257
v -0.820673 -0.112465 -0.061487
v -0.824317 -0.112465 -0.048716
v -0.835914 -0.112465 -0.023287
v -0.846443 -0.112465 -0.004978
v -0.856973 -0.112465 0.013331
v -0.875646 -0.112465 0.040853
v -0.887939 -0.112465 0.056182
v -0.900232 -0.112465 0.071512
v -0.922160 -0.112465 0.095602
v -0.936669 -0.112465 0.109716
v -0.951178 -0.112465 0.123830
v -0.975717 -0.112465 0.144922
v -0.991200 -0.112465 0.156588
v -1.006684 -0.112465 0.168254
v -1.032535 -0.112465 0.185693
v -1.048648 -0.112465 0.195342
v -1.064760 -0.112465 0.204991
v -1.100523 -0.112465 0.223126
v -1.128121 -0.112465 0.235642
v -1.155718 -0.112465 0.248157
v -1.197723 -0.112465 0.265711
v -1.221465 -0.112465 0.274649
v -1.245207 -0.112465 0.283587
v -1.291854 -0.112465 0.298943
v -1.325126 -0.112465 0.308773
v -1.358397 -0.112465 0.318602
v -1.413607 -0.112465 0.332905
v -1.447815 -0.112465 0.340556
v -1.482023 -0.112465 0.348207
v -1.519570 -0.112465 0.356140
v -1.531252 -0.112465 0.358185
v -1.552493 -0.112465 0.361903
v -1.922062 -0.112465 0.801071
v -1.867806 -0.112465 0.801132
v -2.005854 -0.112465 0.800977
v -2.005854 -0.112465 0.830397
v -2.005854 -0.112465 0.846578
v -2.004688 -0.112465 0.859811
v -2.003263 -0.112465 0.859803
v -2.001837 -0.112465 0.859796
v -1.966644 -0.112465 0.847916
v -1.925055 -0.112465 0.833402
v -1.883466 -0.112465 0.818889
v -1.846925 -0.112465 0.805698
v -1.843854 -0.112465 0.804089
v -1.840238 -0.112465 0.802196
vn -0.0000 1.0000 -0.0000
vn -0.0000 -1.0000 -0.0000
vn 0.0078 -0.0000 -1.0000
vn 0.0002 -0.0000 -1.0000
vn -1.0000 -0.0000 -0.0000
vn -1.0000 -0.0000 0.0077
vn 0.6736 -0.0000 0.7391
vn 0.8967 -0.0000 0.4427
vn 0.8984 -0.0000 0.4393
vn 0.0067 -0.0000 1.0000
vn -0.0128 -0.0000 0.9999
vn -1.0000 -0.0000 -0.0008
vn -1.0000 -0.0000 -0.0007
vn -0.9328 -0.0000 -0.3603
vn -0.9308 -0.0000 -0.3654
vn -0.9341 -0.0000 -0.3569
vn 0.1132 -0.0000 0.9936
vn 0.2332 -0.0000 0.9724
vn 0.2616 -0.0000 0.9652
vn 0.2947 -0.0000 0.9556
vn 0.3341 -0.0000 0.9425
vn 0.3662 -0.0000 0.9305
vn 0.3999 -0.0000 0.9166
vn 0.4440 -0.0000 0.8960
vn 0.4818 -0.0000 0.8763
vn 0.5139 -0.0000 0.8579
vn 0.5546 -0.0000 0.8321
vn 0.5979 -0.0000 0.8016
vn 0.6712 -0.0000 0.7413
vn 0.7342 -0.0000 0.6790
vn 0.8138 -0.0000 0.5812
vn 0.8807 -0.0000 0.4738
vn 0.9292 -0.0000 0.3695
vn 0.9778 -0.0000 0.2094
vn 0.9982 -0.0000 0.0608
vn 0.9990 -0.0000 -0.0443
vn 0.9737 -0.0000 -0.2278
vn 0.8670 -0.0000 -0.4982
vn 0.7341 -0.0000 -0.6791
vn 0.5643 -0.0000 -0.8255
vn 0.4306 -0.0000 -0.9026
vn 0.2343 -0.0000 -0.9722
vn 0.1657 -0.0000 -0.9862
vn 0.1283 -0.0000 -0.9917
vn -0.1802 -0.0000 0.9836
vn -0.1581 -0.0000 0.9874
vn -0.1303 -0.0000 0.9915
vn -0.0133 -0.0000 0.9999
vn -0.0023 -0.0000 1.0000
vn -0.9999 -0.0000 -0.0148
vn -0.0000 -0.0000 -1.0000
vn 0.3875 -0.0000 -0.9219
vn 0.3894 -0.0000 -0.9211
vn 0.3915 -0.0000 -0.9202
vn 0.6635 -0.0000 -0.7482
vn 0.8267 -0.0000 0.5627
vn -0.0743 -0.0000 0.9972
vn -0.2322 -0.0000 0.9727
vn -0.2608 -0.0000 0.9654
vn -0.2078 -0.0000 0.9782
vn -0.9072 -0.0000 -0.4208
vn -0.9091 -0.0000 -0.4167
vn 0.4067 -0.0000 0.9136
vn 0.4089 -0.0000 0.9126
vn 0.4128 -0.0000 0.9108
vn 0.6255 -0.0000 -0.7803
vn 0.4316 -0.0000 -0.9021
vn 0.4289 -0.0000 -0.9034
vn 0.4246 -0.0000 -0.9054
vn -0.5497 -0.0000 -0.8354
vn -0.6926 -0.0000 -0.7213
vn -0.8472 -0.0000 -0.5313
vn -0.9692 -0.0000 -0.2464
vn -0.9896 -0.0000 -0.1437
vn -0.9922 -0.0000 -0.1245
vn -0.9839 -0.0000 -0.1789
vn -0.9616 -0.0000 -0.2744
vn -0.9098 -0.0000 -0.4149
vn -0.8669 -0.0000 -0.4985
vn -0.8275 -0.0000 -0.5614
vn -0.7801 -0.0000 -0.6256
vn -0.7395 -0.0000 -0.6732
vn -0.6973 -0.0000 -0.7168
vn -0.6518 -0.0000 -0.7584
vn -0.6018 -0.0000 -0.7987
vn -0.5592 -0.0000 -0.8290
vn -0.5138 -0.0000 -0.8579
vn -0.4523 -0.0000 -0.8919
vn -0.4130 -0.0000 -0.9107
vn -0.3856 -0.0000 -0.9227
vn -0.3523 -0.0000 -0.9359
vn -0.3127 -0.0000 -0.9499
vn -0.2833 -0.0000 -0.9590
vn -0.2508 -0.0000 -0.9680
vn -0.2183 -0.0000 -0.9759
vn -0.2067 -0.0000 -0.9784
vn -0.1724 -0.0000 -0.9850
vn 0.0011 -0.0000 -1.0000
vn -0.9961 -0.0000 0.0878
vn 0.0052 -0.0000 1.0000
vn 0.0051 -0.0000 1.0000
vn 0.3198 -0.0000 0.9475
vn 0.3295 -0.0000 0.9442
vn 0.3395 -0.0000 0.9406
vn 0.4639 -0.0000 0.8859
vn 0.0386 -0.0000 -0.9993
s 0
usemtl Material.001
f 8//1 6//1 7//1
f 9//1 6//1 8//1
f 10//1 6//1 9//1
f 10//1 5//1 6//1
f 11//1 5//1 10//1
f 12//1 5//1 11//1
f 12//1 4//1 5//1
f 24//1 22//1 23//1
f 22//1 24//1 21//1
f 55//1 53//1 54//1
f 25//1 20//1 21//1
f 26//1 20//1 25//1
f 27//1 20//1 26//1
f 28//1 20//1 27//1
f 29//1 20//1 28//1
f 30//1 20//1 29//1
f 20//1 30//1 19//1
f 18//1 37//1 38//1
f 18//1 42//1 17//1
f 19//1 31//1 32//1
f 19//1 32//1 33//1
f 19//1 33//1 34//1
f 19//1 30//1 31//1
f 19//1 36//1 18//1
f 17//1 43//1 44//1
f 17//1 46//1 2//1
f 64//1 50//1 51//1
f 18//1 38//1 39//1
f 18//1 39//1 40//1
f 3//1 12//1 13//1
f 18//1 41//1 42//1
f 2//1 46//1 47//1
f 62//1 58//1 61//1
f 58//1 56//1 57//1
f 17//1 44//1 45//1
f 21//1 24//1 25//1
f 61//1 59//1 60//1
f 48//1 49//1 47//1
f 49//1 2//1 47//1
f 17//1 42//1 43//1
f 2//1 49//1 64//1
f 16//1 17//1 2//1
f 15//1 16//1 2//1
f 4//1 12//1 3//1
f 15//1 1//1 14//1
f 13//1 1//1 3//1
f 19//1 34//1 35//1
f 64//1 49//1 50//1
f 14//1 1//1 13//1
f 18//1 36//1 37//1
f 55//1 52//1 53//1
f 58//1 55//1 56//1
f 64//1 51//1 52//1
f 52//1 63//1 64//1
f 61//1 58//1 59//1
f 17//1 45//1 46//1
f 62//1 52//1 55//1
f 55//1 58//1 62//1
f 52//1 62//1 63//1
f 2//1 1//1 15//1
f 18//1 40//1 41//1
f 19//1 35//1 36//1
f 86//1 85//1 83//1
f 83//1 85//1 84//1
f 90//1 82//1 81//1
f 87//1 82//1 88//1
f 83//1 82//1 86//1
f 82//1 89//1 88//1
f 89//1 82//1 90//1
f 81//1 65//1 90//1
f 81//1 66//1 65//1
f 81//1 67//1 66//1
f 81//1 68//1 67//1
f 81//1 69//1 68//1
f 81//1 70//1 69//1
f 81//1 71//1 70//1
f 72//1 71//1 80//1
f 74//1 73//1 79//1
f 80//1 71//1 81//1
f 79//1 73//1 72//1
f 80//1 79//1 72//1
f 79//1 75//1 74//1
f 78//1 75//1 79//1
f 76//1 75//1 77//1
f 86//1 82//1 87//1
f 77//1 75//1 78//1
f 94//1 95//1 91//1
f 93//1 94//1 91//1
f 91//1 95//1 96//1
f 96//1 92//1 91//1
f 149//1 92//1 148//1
f 97//1 129//1 130//1
f 96//1 146//1 147//1
f 148//1 96//1 147//1
f 96//1 143//1 144//1
f 96//1 142//1 143//1
f 96//1 141//1 142//1
f 97//1 130//1 131//1
f 97//1 140//1 96//1
f 97//1 139//1 140//1
f 97//1 138//1 139//1
f 97//1 137//1 138//1
f 97//1 136//1 137//1
f 97//1 135//1 136//1
f 97//1 134//1 135//1
f 97//1 133//1 134//1
f 97//1 132//1 133//1
f 97//1 131//1 132//1
f 96//1 145//1 146//1
f 97//1 128//1 129//1
f 104//1 119//1 103//1
f 98//1 128//1 97//1
f 98//1 127//1 128//1
f 98//1 126//1 127//1
f 98//1 125//1 126//1
f 98//1 124//1 125//1
f 96//1 144//1 145//1
f 98//1 123//1 124//1
f 99//1 100//1 98//1
f 100//1 101//1 98//1
f 101//1 102//1 98//1
f 98//1 122//1 123//1
f 98//1 120//1 121//1
f 96//1 140//1 141//1
f 148//1 92//1 96//1
f 103//1 120//1 98//1
f 103//1 119//1 120//1
f 118//1 119//1 104//1
f 117//1 118//1 104//1
f 102//1 103//1 98//1
f 104//1 116//1 117//1
f 104//1 115//1 116//1
f 104//1 114//1 115//1
f 105//1 114//1 104//1
f 105//1 113//1 114//1
f 105//1 112//1 113//1
f 111//1 112//1 110//1
f 112//1 109//1 110//1
f 105//1 109//1 112//1
f 105//1 108//1 109//1
f 107//1 108//1 106//1
f 98//1 121//1 122//1
f 106//1 108//1 105//1
f 154//1 155//1 156//1
f 154//1 156//1 157//1
f 154//1 157//1 158//1
f 159//1 150//1 158//1
f 160//1 150//1 159//1
f 153//1 154//1 158//1
f 161//1 151//1 160//1
f 162//1 151//1 161//1
f 163//1 151//1 162//1
f 160//1 151//1 150//1
f 150//1 152//1 158//1
f 153//1 158//1 152//1
f 171//2 170//2 169//2
f 172//2 171//2 169//2
f 173//2 172//2 169//2
f 173//2 169//2 168//2
f 174//2 173//2 168//2
f 175//2 174//2 168//2
f 175//2 168//2 167//2
f 187//2 186//2 185//2
f 185//2 184//2 187//2
f 218//2 217//2 216//2
f 188//2 184//2 183//2
f 189//2 188//2 183//2
f 190//2 189//2 183//2
f 191//2 190//2 183//2
f 192//2 191//2 183//2
f 193//2 192//2 183//2
f 183//2 182//2 193//2
f 181//2 201//2 200//2
f 181//2 180//2 205//2
f 182//2 195//2 194//2
f 182//2 196//2 195//2
f 182//2 197//2 196//2
f 182//2 194//2 193//2
f 182//2 181//2 199//2
f 180//2 207//2 206//2
f 180//2 165//2 209//2
f 227//2 214//2 213//2
f 181//2 202//2 201//2
f 181//2 203//2 202//2
f 166//2 176//2 175//2
f 181//2 205//2 204//2
f 165//2 210//2 209//2
f 225//2 224//2 221//2
f 221//2 220//2 219//2
f 180//2 208//2 207//2
f 184//2 188//2 187//2
f 224//2 223//2 222//2
f 211//2 210//2 212//2
f 212//2 210//2 165//2
f 180//2 206//2 205//2
f 165//2 227//2 212//2
f 179//2 165//2 180//2
f 178//2 165//2 179//2
f 167//2 166//2 175//2
f 178//2 177//2 164//2
f 176//2 166//2 164//2
f 182//2 198//2 197//2
f 227//2 213//2 212//2
f 177//2 176//2 164//2
f 181//2 200//2 199//2
f 218//2 216//2 215//2
f 221//2 219//2 218//2
f 227//2 215//2 214//2
f 215//2 227//2 226//2
f 224//2 222//2 221//2
f 180//2 209//2 208//2
f 225//2 218//2 215//2
f 218//2 225//2 221//2
f 215//2 226//2 225//2
f 165//2 178//2 164//2
f 181//2 204//2 203//2
f 182//2 199//2 198//2
f 249//2 246//2 248//2
f 246//2 247//2 248//2
f 253//2 244//2 245//2
f 250//2 251//2 245//2
f 246//2 249//2 245//2
f 245//2 251//2 252//2
f 252//2 253//2 245//2
f 244//2 253//2 228//2
f 244//2 228//2 229//2
f 244//2 229//2 230//2
f 244//2 230//2 231//2
f 244//2 231//2 232//2
f 244//2 232//2 233//2
f 244//2 233//2 234//2
f 235//2 243//2 234//2
f 237//2 242//2 236//2
f 243//2 244//2 234//2
f 242//2 235//2 236//2
f 243//2 235//2 242//2
f 242//2 237//2 238//2
f 241//2 242//2 238//2
f 239//2 240//2 238//2
f 249//2 250//2 245//2
f 240//2 241//2 238//2
f 257//2 254//2 258//2
f 256//2 254//2 257//2
f 254//2 259//2 258//2
f 259//2 254//2 255//2
f 312//2 311//2 255//2
f 260//2 293//2 292//2
f 259//2 310//2 309//2
f 311//2 310//2 259//2
f 259//2 307//2 306//2
f 259//2 306//2 305//2
f 259//2 305//2 304//2
f 260//2 294//2 293//2
f 260//2 259//2 303//2
f 260//2 303//2 302//2
f 260//2 302//2 301//2
f 260//2 301//2 300//2
f 260//2 300//2 299//2
f 260//2 299//2 298//2
f 260//2 298//2 297//2
f 260//2 297//2 296//2
f 260//2 296//2 295//2
f 260//2 295//2 294//2
f 259//2 309//2 308//2
f 260//2 292//2 291//2
f 267//2 266//2 282//2
f 261//2 260//2 291//2
f 261//2 291//2 290//2
f 261//2 290//2 289//2
f 261//2 289//2 288//2
f 261//2 288//2 287//2
f 259//2 308//2 307//2
f 261//2 287//2 286//2
f 262//2 261//2 263//2
f 263//2 261//2 264//2
f 264//2 261//2 265//2
f 261//2 286//2 285//2
f 261//2 284//2 283//2
f 259//2 304//2 303//2
f 311//2 259//2 255//2
f 266//2 261//2 283//2
f 266//2 283//2 282//2
f 281//2 267//2 282//2
f 280//2 267//2 281//2
f 265//2 261//2 266//2
f 267//2 280//2 279//2
f 267//2 279//2 278//2
f 267//2 278//2 277//2
f 268//2 267//2 277//2
f 268//2 277//2 276//2
f 268//2 276//2 275//2
f 274//2 273//2 275//2
f 275//2 273//2 272//2
f 268//2 275//2 272//2
f 268//2 272//2 271//2
f 270//2 269//2 271//2
f 261//2 285//2 284//2
f 269//2 268//2 271//2
f 317//2 319//2 318//2
f 317//2 320//2 319//2
f 317//2 321//2 320//2
f 322//2 321//2 313//2
f 323//2 322//2 313//2
f 316//2 321//2 317//2
f 324//2 323//2 314//2
f 325//2 324//2 314//2
f 326//2 325//2 314//2
f 323//2 313//2 314//2
f 313//2 321//2 315//2
f 316//2 315//2 321//2
f 1//3 2//3 165//3 164//3
f 3//4 1//4 164//4 166//4
f 4//4 3//4 166//4 167//4
f 5//5 4//5 167//5 168//5
f 6//5 5//5 168//5 169//5
f 7//6 6//6 169//6 170//6
f 8//7 7//7 170//7 171//7
f 9//7 8//7 171//7 172//7
f 10//8 9//8 172//8 173//8
f 11//9 10//9 173//9 174//9
f 12//9 11//9 174//9 175//9
f 13//10 12//10 175//10 176//10
f 14//10 13//10 176//10 177//10
f 15//11 14//11 177//11 178//11
f 16//12 15//12 178//12 179//12
f 17//13 16//13 179//13 180//13
f 18//14 17//14 180//14 181//14
f 19//15 18//15 181//15 182//15
f 20//15 19//15 182//15 183//15
f 21//16 20//16 183//16 184//16
f 22//5 21//5 184//5 185//5
f 23//5 22//5 185//5 186//5
f 24//17 23//17 186//17 187//17
f 25//18 24//18 187//18 188//18
f 26//18 25//18 188//18 189//18
f 27//19 26//19 189//19 190//19
f 28//20 27//20 190//20 191//20
f 29//20 28//20 191//20 192//20
f 30//21 29//21 192//21 193//21
f 31//22 30//22 193//22 194//22
f 32//22 31//22 194//22 195//22
f 33//23 32//23 195//23 196//23
f 34//24 33//24 196//24 197//24
f 35//24 34//24 197//24 198//24
f 36//25 35//25 198//25 199//25
f 37//26 36//26 199//26 200//26
f 38//26 37//26 200//26 201//26
f 39//27 38//27 201//27 202//27
f 40//28 39//28 202//28 203//28
f 41//28 40//28 203//28 204//28
f 42//29 41//29 204//29 205//29
f 43//30 42//30 205//30 206//30
f 44//30 43//30 206//30 207//30
f 45//31 44//31 207//31 208//31
f 46//32 45//32 208//32 209//32
f 47//32 46//32 209//32 210//32
f 48//33 47//33 210//33 211//33
f 49//34 48//34 211//34 212//34
f 50//34 49//34 212//34 213//34
f 51//35 50//35 213//35 214//35
f 52//36 51//36 214//36 215//36
f 53//36 52//36 215//36 216//36
f 54//37 53//37 216//37 217//37
f 55//38 54//38 217//38 218//38
f 56//38 55//38 218//38 219//38
f 57//39 56//39 219//39 220//39
f 58//40 57//40 220//40 221//40
f 59//40 58//40 221//40 222//40
f 60//41 59//41 222//41 223//41
f 61//42 60//42 223//42 224//42
f 62//42 61//42 224//42 225//42
f 63//43 62//43 225//43 226//43
f 64//44 63//44 226//44 227//44
f 2//44 64//44 227//44 165//44
f 65//45 66//45 229//45 228//45
f 66//45 67//45 230//45 229//45
f 67//46 68//46 231//46 230//46
f 68//47 69//47 232//47 231//47
f 69//47 70//47 233//47 232//47
f 70//48 71//48 234//48 233//48
f 71//49 72//49 235//49 234//49
f 72//49 73//49 236//49 235//49
f 73//5 74//5 237//5 236//5
f 74//5 75//5 238//5 237//5
f 75//50 76//50 239//50 238//50
f 76//51 77//51 240//51 239//51
f 77//51 78//51 241//51 240//51
f 78//52 79//52 242//52 241//52
f 79//53 80//53 243//53 242//53
f 80//53 81//53 244//53 243//53
f 81//54 82//54 245//54 244//54
f 82//55 83//55 246//55 245//55
f 83//55 84//55 247//55 246//55
f 84//56 85//56 248//56 247//56
f 85//57 86//57 249//57 248//57
f 86//57 87//57 250//57 249//57
f 87//58 88//58 251//58 250//58
f 88//59 89//59 252//59 251//59
f 89//59 90//59 253//59 252//59
f 90//60 65//60 228//60 253//60
f 91//61 92//61 255//61 254//61
f 93//62 91//62 254//62 256//62
f 94//5 93//5 256//5 257//5
f 95//5 94//5 257//5 258//5
f 96//63 95//63 258//63 259//63
f 97//64 96//64 259//64 260//64
f 98//64 97//64 260//64 261//64
f 99//65 98//65 261//65 262//65
f 100//66 99//66 262//66 263//66
f 101//66 100//66 263//66 264//66
f 102//67 101//67 264//67 265//67
f 103//68 102//68 265//68 266//68
f 104//68 103//68 266//68 267//68
f 105//69 104//69 267//69 268//69
f 106//51 105//51 268//51 269//51
f 107//51 106//51 269//51 270//51
f 108//70 107//70 270//70 271//70
f 109//71 108//71 271//71 272//71
f 110//71 109//71 272//71 273//71
f 111//72 110//72 273//72 274//72
f 112//73 111//73 274//73 275//73
f 113//73 112//73 275//73 276//73
f 114//74 113//74 276//74 277//74
f 115//75 114//75 277//75 278//75
f 116//75 115//75 278//75 279//75
f 117//76 116//76 279//76 280//76
f 118//77 117//77 280//77 281//77
f 119//77 118//77 281//77 282//77
f 120//78 119//78 282//78 283//78
f 121//79 120//79 283//79 284//79
f 122//79 121//79 284//79 285//79
f 123//80 122//80 285//80 286//80
f 124//81 123//81 286//81 287//81
f 125//81 124//81 287//81 288//81
f 126//82 125//82 288//82 289//82
f 127//83 126//83 289//83 290//83
f 128//83 127//83 290//83 291//83
f 129//84 128//84 291//84 292//84
f 130//85 129//85 292//85 293//85
f 131//85 130//85 293//85 294//85
f 132//86 131//86 294//86 295//86
f 133//87 132//87 295//87 296//87
f 134//87 133//87 296//87 297//87
f 135//88 134//88 297//88 298//88
f 136//89 135//89 298//89 299//89
f 137//89 136//89 299//89 300//89
f 138//90 137//90 300//90 301//90
f 139//91 138//91 301//91 302//91
f 140//91 139//91 302//91 303//91
f 141//92 140//92 303//92 304//92
f 142//93 141//93 304//93 305//93
f 143//93 142//93 305//93 306//93
f 144//94 143//94 306//94 307//94
f 145//95 144//95 307//95 308//95
f 146//95 145//95 308//95 309//95
f 147//96 146//96 309//96 310//96
f 148//97 147//97 310//97 311//97
f 149//97 148//97 311//97 312//97
f 92//61 149//61 312//61 255//61
f 150//98 151//98 314//98 313//98
f 152//98 150//98 313//98 315//98
f 153//5 152//5 315//5 316//5
f 154//5 153//5 316//5 317//5
f 155//99 154//99 317//99 318//99
f 156//100 155//100 318//100 319//100
f 157//101 156//101 319//101 320//101
f 158//102 157//102 320//102 321//102
f 159//103 158//103 321//103 322//103
f 160//103 159//103 322//103 323//103
f 161//104 160//104 323//104 324//104
f 162//105 161//105 324//105 325//105
f 163//105 162//105 325//105 326//105
f 151//106 163//106 326//106 314//106
