# Blender 5.0.0
# www.blender.org
mtllib Untitled.mtl
o Node5
v -0.185920 0.055437 -0.344528
v -0.199211 0.055437 -0.379316
v -0.200732 0.055437 -0.397251
v -0.194025 0.055437 -0.394520
v -0.187474 0.055437 -0.391524
v -0.142468 0.055437 -0.369933
v -0.127056 0.055437 -0.362406
v -0.110195 0.055437 -0.354133
v -0.091994 0.055437 -0.345171
v 0.015352 0.055437 -0.291916
v 0.039334 0.055437 -0.279956
v 0.140042 0.055437 -0.229552
v 0.165874 0.055437 -0.216582
v 0.243221 0.055437 -0.177655
v 0.268594 0.055437 -0.164854
v 0.341972 0.055437 -0.127734
v 0.365159 0.055437 -0.115969
v 0.387529 0.055437 -0.104598
v 0.483368 0.055437 -0.055559
v 0.498578 0.055437 -0.047694
v 0.512217 0.055437 -0.040602
v 0.524177 0.055437 -0.034339
v 0.542629 0.055437 -0.024514
v 0.548905 0.055437 -0.021060
v 0.553072 0.055437 -0.018651
v 0.555020 0.055437 -0.017342
v 0.550644 0.055437 -0.007236
v 0.482285 0.055437 0.025519
v 0.452897 0.055437 0.042355
v 0.417608 0.055437 0.062292
v 0.386140 0.055437 0.079427
v 0.358576 0.055437 0.093721
v 0.335006 0.055437 0.105132
v 0.315516 0.055437 0.113620
v 0.300192 0.055437 0.119145
v 0.289120 0.055437 0.121665
v 0.282389 0.055437 0.121142
v 0.275082 0.055437 0.109325
v 0.271589 0.055437 0.085928
v 0.270016 0.055437 0.064480
v -0.107715 0.055437 -0.201945
v -0.114273 0.055437 -0.202592
v -0.119031 0.055437 -0.205306
v -0.124384 0.055437 -0.210864
v -0.130419 0.055437 -0.219448
v -0.137225 0.055437 -0.231235
v -0.144891 0.055437 -0.246407
v -0.153505 0.055437 -0.265142
v -0.163156 0.055437 -0.287621
v -0.173931 0.055437 -0.314023
v 0.540894 0.055437 -0.003999
v -0.095293 0.055437 -0.199686
v 0.525214 0.055437 0.003047
v 0.265807 0.055437 0.042543
v 0.505158 0.055437 0.013141
v -0.078766 0.055437 -0.195471
v -0.058983 0.055437 -0.189606
v -0.036798 0.055437 -0.182396
v 0.260467 0.055437 0.027031
v -0.013063 0.055437 -0.174149
v 0.253175 0.055437 0.013880
v 0.011371 0.055437 -0.165168
v 0.242994 0.055437 -0.000885
v 0.035652 0.055437 -0.155761
v 0.230402 0.055437 -0.016786
v 0.058927 0.055437 -0.146232
v 0.215874 0.055437 -0.033343
v 0.080343 0.055437 -0.136889
v 0.199887 0.055437 -0.050077
v 0.099050 0.055437 -0.128035
v 0.182915 0.055437 -0.066510
v 0.165435 0.055437 -0.082161
v 0.114711 0.055437 -0.119641
v 0.147924 0.055437 -0.096553
v 0.130857 0.055437 -0.109206
v -0.200732 0.154586 -0.397251
v -0.199211 0.154586 -0.379316
v -0.185920 0.154586 -0.344528
v -0.187474 0.154586 -0.391524
v -0.194025 0.154586 -0.394520
v -0.127056 0.154586 -0.362406
v -0.142468 0.154586 -0.369933
v -0.091994 0.154586 -0.345171
v -0.110195 0.154586 -0.354133
v 0.039334 0.154586 -0.279956
v 0.015352 0.154586 -0.291916
v 0.165874 0.154586 -0.216582
v 0.140042 0.154586 -0.229552
v 0.268594 0.154586 -0.164854
v 0.243221 0.154586 -0.177655
v 0.365159 0.154586 -0.115969
v 0.341972 0.154586 -0.127734
v 0.483368 0.154586 -0.055559
v 0.387529 0.154586 -0.104598
v 0.512217 0.154586 -0.040602
v 0.498578 0.154586 -0.047694
v 0.542629 0.154586 -0.024514
v 0.524177 0.154586 -0.034339
v 0.553072 0.154586 -0.018651
v 0.548905 0.154586 -0.021060
v 0.550644 0.154586 -0.007236
v 0.555020 0.154586 -0.017342
v 0.417608 0.154586 0.062292
v 0.452897 0.154586 0.042355
v 0.482285 0.154586 0.025519
v 0.358576 0.154586 0.093721
v 0.386140 0.154586 0.079427
v 0.315516 0.154586 0.113620
v 0.335006 0.154586 0.105132
v 0.289120 0.154586 0.121665
v 0.300192 0.154586 0.119145
v 0.275082 0.154586 0.109325
v 0.282389 0.154586 0.121142
v 0.270016 0.154586 0.064480
v 0.271589 0.154586 0.085928
v -0.119031 0.154586 -0.205306
v -0.114273 0.154586 -0.202592
v -0.107715 0.154586 -0.201945
v -0.130419 0.154586 -0.219448
v -0.124384 0.154586 -0.210864
v -0.144891 0.154586 -0.246407
v -0.137225 0.154586 -0.231235
v -0.163156 0.154586 -0.287621
v -0.153505 0.154586 -0.265142
v -0.173931 0.154586 -0.314023
v 0.540894 0.154586 -0.003999
v -0.095293 0.154586 -0.199686
v 0.525214 0.154586 0.003047
v 0.265807 0.154586 0.042543
v 0.505158 0.154586 0.013141
v -0.078766 0.154586 -0.195471
v -0.058983 0.154586 -0.189606
v -0.036798 0.154586 -0.182396
v 0.260467 0.154586 0.027031
v -0.013063 0.154586 -0.174149
v 0.253175 0.154586 0.013880
v 0.011371 0.154586 -0.165168
v 0.242994 0.154586 -0.000885
v 0.035652 0.154586 -0.155761
v 0.230402 0.154586 -0.016786
v 0.058927 0.154586 -0.146232
v 0.215874 0.154586 -0.033343
v 0.080343 0.154586 -0.136889
v 0.199887 0.154586 -0.050077
v 0.099050 0.154586 -0.128035
v 0.182915 0.154586 -0.066510
v 0.165435 0.154586 -0.082161
v 0.114711 0.154586 -0.119641
v 0.147924 0.154586 -0.096553
v 0.130857 0.154586 -0.109206
v -0.185920 0.055437 -0.344528
v -0.199211 0.055437 -0.379316
v -0.199211 0.154586 -0.379316
v -0.185920 0.154586 -0.344528
v -0.173931 0.055437 -0.314023
v -0.185920 0.055437 -0.344528
v -0.185920 0.154586 -0.344528
v -0.173931 0.154586 -0.314023
v -0.163156 0.055437 -0.287621
v -0.173931 0.055437 -0.314023
v -0.173931 0.154586 -0.314023
v -0.163156 0.154586 -0.287621
v -0.153505 0.055437 -0.265142
v -0.163156 0.055437 -0.287621
v -0.163156 0.154586 -0.287621
v -0.153505 0.154586 -0.265142
v -0.144891 0.055437 -0.246407
v -0.153505 0.055437 -0.265142
v -0.153505 0.154586 -0.265142
v -0.144891 0.154586 -0.246407
v -0.137225 0.055437 -0.231235
v -0.144891 0.055437 -0.246407
v -0.144891 0.154586 -0.246407
v -0.137225 0.154586 -0.231235
v -0.130419 0.055437 -0.219448
v -0.137225 0.055437 -0.231235
v -0.137225 0.154586 -0.231235
v -0.130419 0.154586 -0.219448
v -0.124384 0.055437 -0.210864
v -0.130419 0.055437 -0.219448
v -0.130419 0.154586 -0.219448
v -0.124384 0.154586 -0.210864
v -0.119031 0.055437 -0.205306
v -0.124384 0.055437 -0.210864
v -0.124384 0.154586 -0.210864
v -0.119031 0.154586 -0.205306
v -0.114273 0.055437 -0.202592
v -0.119031 0.055437 -0.205306
v -0.119031 0.154586 -0.205306
v -0.114273 0.154586 -0.202592
v -0.107715 0.055437 -0.201945
v -0.114273 0.055437 -0.202592
v -0.114273 0.154586 -0.202592
v -0.107715 0.154586 -0.201945
v -0.095293 0.055437 -0.199686
v -0.107715 0.055437 -0.201945
v -0.107715 0.154586 -0.201945
v -0.095293 0.154586 -0.199686
v -0.078766 0.055437 -0.195471
v -0.095293 0.055437 -0.199686
v -0.095293 0.154586 -0.199686
v -0.078766 0.154586 -0.195471
v -0.058983 0.055437 -0.189606
v -0.078766 0.055437 -0.195471
v -0.078766 0.154586 -0.195471
v -0.058983 0.154586 -0.189606
v -0.036798 0.055437 -0.182396
v -0.058983 0.055437 -0.189606
v -0.058983 0.154586 -0.189606
v -0.036798 0.154586 -0.182396
v -0.013063 0.055437 -0.174149
v -0.036798 0.055437 -0.182396
v -0.036798 0.154586 -0.182396
v -0.013063 0.154586 -0.174149
v 0.011371 0.055437 -0.165168
v -0.013063 0.055437 -0.174149
v -0.013063 0.154586 -0.174149
v 0.011371 0.154586 -0.165168
v 0.035652 0.055437 -0.155761
v 0.011371 0.055437 -0.165168
v 0.011371 0.154586 -0.165168
v 0.035652 0.154586 -0.155761
v 0.058927 0.055437 -0.146232
v 0.035652 0.055437 -0.155761
v 0.035652 0.154586 -0.155761
v 0.058927 0.154586 -0.146232
v 0.080343 0.055437 -0.136889
v 0.058927 0.055437 -0.146232
v 0.058927 0.154586 -0.146232
v 0.080343 0.154586 -0.136889
v 0.099050 0.055437 -0.128035
v 0.080343 0.055437 -0.136889
v 0.080343 0.154586 -0.136889
v 0.099050 0.154586 -0.128035
v 0.114711 0.055437 -0.119641
v 0.099050 0.055437 -0.128035
v 0.099050 0.154586 -0.128035
v 0.114711 0.154586 -0.119641
v 0.130857 0.055437 -0.109206
v 0.114711 0.055437 -0.119641
v 0.114711 0.154586 -0.119641
v 0.130857 0.154586 -0.109206
v 0.147924 0.055437 -0.096553
v 0.130857 0.055437 -0.109206
v 0.130857 0.154586 -0.109206
v 0.147924 0.154586 -0.096553
v 0.165435 0.055437 -0.082161
v 0.147924 0.055437 -0.096553
v 0.147924 0.154586 -0.096553
v 0.165435 0.154586 -0.082161
v 0.182915 0.055437 -0.066510
v 0.165435 0.055437 -0.082161
v 0.165435 0.154586 -0.082161
v 0.182915 0.154586 -0.066510
v 0.199887 0.055437 -0.050077
v 0.182915 0.055437 -0.066510
v 0.182915 0.154586 -0.066510
v 0.199887 0.154586 -0.050077
v 0.215874 0.055437 -0.033343
v 0.199887 0.055437 -0.050077
v 0.199887 0.154586 -0.050077
v 0.215874 0.154586 -0.033343
v 0.230402 0.055437 -0.016786
v 0.215874 0.055437 -0.033343
v 0.215874 0.154586 -0.033343
v 0.230402 0.154586 -0.016786
v 0.242994 0.055437 -0.000885
v 0.230402 0.055437 -0.016786
v 0.230402 0.154586 -0.016786
v 0.242994 0.154586 -0.000885
v 0.253175 0.055437 0.013880
v 0.242994 0.055437 -0.000885
v 0.242994 0.154586 -0.000885
v 0.253175 0.154586 0.013880
v 0.260467 0.055437 0.027031
v 0.253175 0.055437 0.013880
v 0.253175 0.154586 0.013880
v 0.260467 0.154586 0.027031
v 0.265807 0.055437 0.042543
v 0.260467 0.055437 0.027031
v 0.260467 0.154586 0.027031
v 0.265807 0.154586 0.042543
v 0.270016 0.055437 0.064480
v 0.265807 0.055437 0.042543
v 0.265807 0.154586 0.042543
v 0.270016 0.154586 0.064480
v 0.271589 0.055437 0.085928
v 0.270016 0.055437 0.064480
v 0.270016 0.154586 0.064480
v 0.271589 0.154586 0.085928
v 0.275082 0.055437 0.109325
v 0.271589 0.055437 0.085928
v 0.271589 0.154586 0.085928
v 0.275082 0.154586 0.109325
v 0.282389 0.055437 0.121142
v 0.275082 0.055437 0.109325
v 0.275082 0.154586 0.109325
v 0.282389 0.154586 0.121142
v 0.289120 0.055437 0.121665
v 0.282389 0.055437 0.121142
v 0.282389 0.154586 0.121142
v 0.289120 0.154586 0.121665
v 0.300192 0.055437 0.119145
v 0.289120 0.055437 0.121665
v 0.289120 0.154586 0.121665
v 0.300192 0.154586 0.119145
v 0.315516 0.055437 0.113620
v 0.300192 0.055437 0.119145
v 0.300192 0.154586 0.119145
v 0.315516 0.154586 0.113620
v 0.335006 0.055437 0.105132
v 0.315516 0.055437 0.113620
v 0.315516 0.154586 0.113620
v 0.335006 0.154586 0.105132
v 0.358576 0.055437 0.093721
v 0.335006 0.055437 0.105132
v 0.335006 0.154586 0.105132
v 0.358576 0.154586 0.093721
v 0.386140 0.055437 0.079427
v 0.358576 0.055437 0.093721
v 0.358576 0.154586 0.093721
v 0.386140 0.154586 0.079427
v 0.417608 0.055437 0.062292
v 0.386140 0.055437 0.079427
v 0.386140 0.154586 0.079427
v 0.417608 0.154586 0.062292
v 0.452897 0.055437 0.042355
v 0.417608 0.055437 0.062292
v 0.417608 0.154586 0.062292
v 0.452897 0.154586 0.042355
v 0.482285 0.055437 0.025519
v 0.452897 0.055437 0.042355
v 0.452897 0.154586 0.042355
v 0.482285 0.154586 0.025519
v 0.505158 0.055437 0.013141
v 0.482285 0.055437 0.025519
v 0.482285 0.154586 0.025519
v 0.505158 0.154586 0.013141
v 0.525214 0.055437 0.003047
v 0.505158 0.055437 0.013141
v 0.505158 0.154586 0.013141
v 0.525214 0.154586 0.003047
v 0.540894 0.055437 -0.003999
v 0.525214 0.055437 0.003047
v 0.525214 0.154586 0.003047
v 0.540894 0.154586 -0.003999
v 0.550644 0.055437 -0.007236
v 0.540894 0.055437 -0.003999
v 0.540894 0.154586 -0.003999
v 0.550644 0.154586 -0.007236
v 0.555020 0.055437 -0.017342
v 0.550644 0.055437 -0.007236
v 0.550644 0.154586 -0.007236
v 0.555020 0.154586 -0.017342
v 0.553072 0.055437 -0.018651
v 0.555020 0.055437 -0.017342
v 0.555020 0.154586 -0.017342
v 0.553072 0.154586 -0.018651
v 0.548905 0.055437 -0.021060
v 0.553072 0.055437 -0.018651
v 0.553072 0.154586 -0.018651
v 0.548905 0.154586 -0.021060
v 0.542629 0.055437 -0.024514
v 0.548905 0.055437 -0.021060
v 0.548905 0.154586 -0.021060
v 0.542629 0.154586 -0.024514
v 0.524177 0.055437 -0.034339
v 0.542629 0.055437 -0.024514
v 0.542629 0.154586 -0.024514
v 0.524177 0.154586 -0.034339
v 0.512217 0.055437 -0.040602
v 0.524177 0.055437 -0.034339
v 0.524177 0.154586 -0.034339
v 0.512217 0.154586 -0.040602
v 0.498578 0.055437 -0.047694
v 0.512217 0.055437 -0.040602
v 0.512217 0.154586 -0.040602
v 0.498578 0.154586 -0.047694
v 0.483368 0.055437 -0.055559
v 0.498578 0.055437 -0.047694
v 0.498578 0.154586 -0.047694
v 0.483368 0.154586 -0.055559
v 0.387529 0.055437 -0.104598
v 0.483368 0.055437 -0.055559
v 0.483368 0.154586 -0.055559
v 0.387529 0.154586 -0.104598
v 0.365159 0.055437 -0.115969
v 0.387529 0.055437 -0.104598
v 0.387529 0.154586 -0.104598
v 0.365159 0.154586 -0.115969
v 0.341972 0.055437 -0.127734
v 0.365159 0.055437 -0.115969
v 0.365159 0.154586 -0.115969
v 0.341972 0.154586 -0.127734
v 0.268594 0.055437 -0.164854
v 0.341972 0.055437 -0.127734
v 0.341972 0.154586 -0.127734
v 0.268594 0.154586 -0.164854
v 0.243221 0.055437 -0.177655
v 0.268594 0.055437 -0.164854
v 0.268594 0.154586 -0.164854
v 0.243221 0.154586 -0.177655
v 0.165874 0.055437 -0.216582
v 0.243221 0.055437 -0.177655
v 0.243221 0.154586 -0.177655
v 0.165874 0.154586 -0.216582
v 0.140042 0.055437 -0.229552
v 0.165874 0.055437 -0.216582
v 0.165874 0.154586 -0.216582
v 0.140042 0.154586 -0.229552
v 0.039334 0.055437 -0.279956
v 0.140042 0.055437 -0.229552
v 0.140042 0.154586 -0.229552
v 0.039334 0.154586 -0.279956
v 0.015352 0.055437 -0.291916
v 0.039334 0.055437 -0.279956
v 0.039334 0.154586 -0.279956
v 0.015352 0.154586 -0.291916
v -0.091994 0.055437 -0.345171
v 0.015352 0.055437 -0.291916
v 0.015352 0.154586 -0.291916
v -0.091994 0.154586 -0.345171
v -0.110195 0.055437 -0.354133
v -0.091994 0.055437 -0.345171
v -0.091994 0.154586 -0.345171
v -0.110195 0.154586 -0.354133
v -0.127056 0.055437 -0.362406
v -0.110195 0.055437 -0.354133
v -0.110195 0.154586 -0.354133
v -0.127056 0.154586 -0.362406
v -0.142468 0.055437 -0.369933
v -0.127056 0.055437 -0.362406
v -0.127056 0.154586 -0.362406
v -0.142468 0.154586 -0.369933
v -0.187474 0.055437 -0.391524
v -0.142468 0.055437 -0.369933
v -0.142468 0.154586 -0.369933
v -0.187474 0.154586 -0.391524
v -0.194025 0.055437 -0.394520
v -0.187474 0.055437 -0.391524
v -0.187474 0.154586 -0.391524
v -0.194025 0.154586 -0.394520
v -0.200732 0.055437 -0.397251
v -0.194025 0.055437 -0.394520
v -0.194025 0.154586 -0.394520
v -0.200732 0.154586 -0.397251
v -0.199211 0.055437 -0.379316
v -0.200732 0.055437 -0.397251
v -0.200732 0.154586 -0.397251
v -0.199211 0.154586 -0.379316
v -0.369115 0.055437 0.100985
v -0.368467 0.055437 -0.122796
v -0.368171 0.055437 -0.191641
v -0.367651 0.055437 -0.244582
v -0.366782 0.055437 -0.283242
v -0.365440 0.055437 -0.309246
v -0.363501 0.055437 -0.324218
v -0.360840 0.055437 -0.329780
v -0.357335 0.055437 -0.327559
v -0.352895 0.055437 -0.319259
v -0.347518 0.055437 -0.307581
v -0.333402 0.055437 -0.276170
v -0.325106 0.055437 -0.257446
v -0.316280 0.055437 -0.237382
v -0.307146 0.055437 -0.216481
v -0.288836 0.055437 -0.174189
v -0.280104 0.055437 -0.153805
v -0.185631 0.055437 0.059379
v -0.183043 0.055437 0.059483
v -0.136451 0.055437 0.061378
v -0.056236 0.055437 0.002670
v -0.065585 0.055437 -0.022844
v -0.078445 0.055437 -0.058555
v -0.087124 0.055437 -0.088418
v -0.089284 0.055437 -0.105875
v -0.084671 0.055437 -0.109683
v -0.071936 0.055437 -0.106035
v -0.052316 0.055437 -0.098617
v -0.028885 0.055437 -0.088591
v -0.004208 0.055437 -0.076507
v 0.018045 0.055437 -0.063017
v 0.037299 0.055437 -0.048399
v 0.053465 0.055437 -0.032765
v 0.066448 0.055437 -0.016225
v 0.076159 0.055437 0.001111
v 0.082505 0.055437 0.019132
v 0.085392 0.055437 0.037731
v 0.084728 0.055437 0.063509
v 0.078134 0.055437 0.080918
v 0.060794 0.055437 0.091402
v 0.048759 0.055437 0.095421
v 0.040118 0.055437 0.097001
v 0.028589 0.055437 0.098480
v 0.014365 0.055437 0.099843
v -0.002358 0.055437 0.101084
v -0.021385 0.055437 0.102192
v -0.042521 0.055437 0.103156
v -0.065572 0.055437 0.103970
v -0.090340 0.055437 0.104621
v -0.116633 0.055437 0.105101
v -0.144255 0.055437 0.105399
v -0.173010 0.055437 0.105507
v -0.176797 0.055437 0.105507
v -0.179387 0.055437 0.105507
v -0.369122 0.055437 0.103558
v -0.268004 0.055437 -0.125526
v -0.048336 0.055437 0.025060
v -0.260894 0.055437 -0.109142
v -0.042428 0.055437 0.042735
v -0.243447 0.055437 -0.069213
v -0.039055 0.055437 0.054108
v -0.233904 0.055437 -0.047487
v -0.040064 0.055437 0.058833
v -0.224346 0.055437 -0.025801
v -0.055757 0.055437 0.061729
v -0.222713 0.055437 -0.022103
v -0.084358 0.055437 0.062879
v -0.188376 0.055437 0.055632
v -0.133863 0.055437 0.061483
v -0.187335 0.055437 0.057987
v -0.368171 0.154586 -0.191641
v -0.368467 0.154586 -0.122796
v -0.369115 0.154586 0.100985
v -0.366782 0.154586 -0.283242
v -0.367651 0.154586 -0.244582
v -0.363501 0.154586 -0.324218
v -0.365440 0.154586 -0.309246
v -0.357335 0.154586 -0.327559
v -0.360840 0.154586 -0.329780
v -0.347518 0.154586 -0.307581
v -0.352895 0.154586 -0.319259
v -0.325106 0.154586 -0.257446
v -0.333402 0.154586 -0.276170
v -0.307146 0.154586 -0.216481
v -0.316280 0.154586 -0.237382
v -0.280104 0.154586 -0.153805
v -0.288836 0.154586 -0.174189
v -0.136451 0.154586 0.061378
v -0.183043 0.154586 0.059483
v -0.185631 0.154586 0.059379
v -0.078445 0.154586 -0.058555
v -0.065585 0.154586 -0.022844
v -0.056236 0.154586 0.002670
v -0.089284 0.154586 -0.105875
v -0.087124 0.154586 -0.088418
v -0.071936 0.154586 -0.106035
v -0.084671 0.154586 -0.109683
v -0.028885 0.154586 -0.088591
v -0.052316 0.154586 -0.098617
v 0.018045 0.154586 -0.063017
v -0.004208 0.154586 -0.076507
v 0.053465 0.154586 -0.032765
v 0.037299 0.154586 -0.048399
v 0.076159 0.154586 0.001111
v 0.066448 0.154586 -0.016225
v 0.085392 0.154586 0.037731
v 0.082505 0.154586 0.019132
v 0.078134 0.154586 0.080918
v 0.084728 0.154586 0.063509
v 0.048759 0.154586 0.095421
v 0.060794 0.154586 0.091402
v 0.028589 0.154586 0.098480
v 0.040118 0.154586 0.097001
v -0.002358 0.154586 0.101084
v 0.014365 0.154586 0.099843
v -0.042521 0.154586 0.103156
v -0.021385 0.154586 0.102192
v -0.090340 0.154586 0.104621
v -0.065572 0.154586 0.103970
v -0.144255 0.154586 0.105399
v -0.116633 0.154586 0.105101
v -0.176797 0.154586 0.105507
v -0.173010 0.154586 0.105507
v -0.369122 0.154586 0.103558
v -0.179387 0.154586 0.105507
v -0.268004 0.154586 -0.125526
v -0.048336 0.154586 0.025060
v -0.260894 0.154586 -0.109142
v -0.042428 0.154586 0.042735
v -0.243447 0.154586 -0.069213
v -0.039055 0.154586 0.054108
v -0.233904 0.154586 -0.047487
v -0.040064 0.154586 0.058833
v -0.224346 0.154586 -0.025801
v -0.055757 0.154586 0.061729
v -0.222713 0.154586 -0.022103
v -0.084358 0.154586 0.062879
v -0.188376 0.154586 0.055632
v -0.133863 0.154586 0.061483
v -0.187335 0.154586 0.057987
v -0.369115 0.055437 0.100985
v -0.368467 0.055437 -0.122796
v -0.368467 0.154586 -0.122796
v -0.369115 0.154586 0.100985
v -0.369122 0.055437 0.103558
v -0.369122 0.154586 0.103558
v -0.179387 0.055437 0.105507
v -0.369122 0.055437 0.103558
v -0.369122 0.154586 0.103558
v -0.179387 0.154586 0.105507
v -0.176797 0.055437 0.105507
v -0.179387 0.055437 0.105507
v -0.179387 0.154586 0.105507
v -0.176797 0.154586 0.105507
v -0.173010 0.055437 0.105507
v -0.176797 0.055437 0.105507
v -0.176797 0.154586 0.105507
v -0.173010 0.154586 0.105507
v -0.144255 0.055437 0.105399
v -0.173010 0.055437 0.105507
v -0.173010 0.154586 0.105507
v -0.144255 0.154586 0.105399
v -0.116633 0.055437 0.105101
v -0.144255 0.055437 0.105399
v -0.144255 0.154586 0.105399
v -0.116633 0.154586 0.105101
v -0.090340 0.055437 0.104621
v -0.116633 0.055437 0.105101
v -0.116633 0.154586 0.105101
v -0.090340 0.154586 0.104621
v -0.065572 0.055437 0.103970
v -0.090340 0.055437 0.104621
v -0.090340 0.154586 0.104621
v -0.065572 0.154586 0.103970
v -0.042521 0.055437 0.103156
v -0.065572 0.055437 0.103970
v -0.065572 0.154586 0.103970
v -0.042521 0.154586 0.103156
v -0.021385 0.055437 0.102192
v -0.042521 0.055437 0.103156
v -0.042521 0.154586 0.103156
v -0.021385 0.154586 0.102192
v -0.002358 0.055437 0.101084
v -0.021385 0.055437 0.102192
v -0.021385 0.154586 0.102192
v -0.002358 0.154586 0.101084
v 0.014365 0.055437 0.099843
v -0.002358 0.055437 0.101084
v -0.002358 0.154586 0.101084
v 0.014365 0.154586 0.099843
v 0.028589 0.055437 0.098480
v 0.014365 0.055437 0.099843
v 0.014365 0.154586 0.099843
v 0.028589 0.154586 0.098480
v 0.040118 0.055437 0.097001
v 0.028589 0.055437 0.098480
v 0.028589 0.154586 0.098480
v 0.040118 0.154586 0.097001
v 0.048759 0.055437 0.095421
v 0.040118 0.055437 0.097001
v 0.040118 0.154586 0.097001
v 0.048759 0.154586 0.095421
v 0.060794 0.055437 0.091402
v 0.048759 0.055437 0.095421
v 0.048759 0.154586 0.095421
v 0.060794 0.154586 0.091402
v 0.078134 0.055437 0.080918
v 0.060794 0.055437 0.091402
v 0.060794 0.154586 0.091402
v 0.078134 0.154586 0.080918
v 0.084728 0.055437 0.063509
v 0.078134 0.055437 0.080918
v 0.078134 0.154586 0.080918
v 0.084728 0.154586 0.063509
v 0.085392 0.055437 0.037731
v 0.084728 0.055437 0.063509
v 0.084728 0.154586 0.063509
v 0.085392 0.154586 0.037731
v 0.082505 0.055437 0.019132
v 0.085392 0.055437 0.037731
v 0.085392 0.154586 0.037731
v 0.082505 0.154586 0.019132
v 0.076159 0.055437 0.001111
v 0.082505 0.055437 0.019132
v 0.082505 0.154586 0.019132
v 0.076159 0.154586 0.001111
v 0.066448 0.055437 -0.016225
v 0.076159 0.055437 0.001111
v 0.076159 0.154586 0.001111
v 0.066448 0.154586 -0.016225
v 0.053465 0.055437 -0.032765
v 0.066448 0.055437 -0.016225
v 0.066448 0.154586 -0.016225
v 0.053465 0.154586 -0.032765
v 0.037299 0.055437 -0.048399
v 0.053465 0.055437 -0.032765
v 0.053465 0.154586 -0.032765
v 0.037299 0.154586 -0.048399
v 0.018045 0.055437 -0.063017
v 0.037299 0.055437 -0.048399
v 0.037299 0.154586 -0.048399
v 0.018045 0.154586 -0.063017
v -0.004208 0.055437 -0.076507
v 0.018045 0.055437 -0.063017
v 0.018045 0.154586 -0.063017
v -0.004208 0.154586 -0.076507
v -0.028885 0.055437 -0.088591
v -0.004208 0.055437 -0.076507
v -0.004208 0.154586 -0.076507
v -0.028885 0.154586 -0.088591
v -0.052316 0.055437 -0.098617
v -0.028885 0.055437 -0.088591
v -0.028885 0.154586 -0.088591
v -0.052316 0.154586 -0.098617
v -0.071936 0.055437 -0.106035
v -0.052316 0.055437 -0.098617
v -0.052316 0.154586 -0.098617
v -0.071936 0.154586 -0.106035
v -0.084671 0.055437 -0.109683
v -0.071936 0.055437 -0.106035
v -0.071936 0.154586 -0.106035
v -0.084671 0.154586 -0.109683
v -0.089284 0.055437 -0.105875
v -0.084671 0.055437 -0.109683
v -0.084671 0.154586 -0.109683
v -0.089284 0.154586 -0.105875
v -0.087124 0.055437 -0.088418
v -0.089284 0.055437 -0.105875
v -0.089284 0.154586 -0.105875
v -0.087124 0.154586 -0.088418
v -0.078445 0.055437 -0.058555
v -0.087124 0.055437 -0.088418
v -0.087124 0.154586 -0.088418
v -0.078445 0.154586 -0.058555
v -0.065585 0.055437 -0.022844
v -0.078445 0.055437 -0.058555
v -0.078445 0.154586 -0.058555
v -0.065585 0.154586 -0.022844
v -0.056236 0.055437 0.002670
v -0.065585 0.055437 -0.022844
v -0.065585 0.154586 -0.022844
v -0.056236 0.154586 0.002670
v -0.048336 0.055437 0.025060
v -0.056236 0.055437 0.002670
v -0.056236 0.154586 0.002670
v -0.048336 0.154586 0.025060
v -0.042428 0.055437 0.042735
v -0.048336 0.055437 0.025060
v -0.048336 0.154586 0.025060
v -0.042428 0.154586 0.042735
v -0.039055 0.055437 0.054108
v -0.042428 0.055437 0.042735
v -0.042428 0.154586 0.042735
v -0.039055 0.154586 0.054108
v -0.040064 0.055437 0.058833
v -0.039055 0.055437 0.054108
v -0.039055 0.154586 0.054108
v -0.040064 0.154586 0.058833
v -0.055757 0.055437 0.061729
v -0.040064 0.055437 0.058833
v -0.040064 0.154586 0.058833
v -0.055757 0.154586 0.061729
v -0.084358 0.055437 0.062879
v -0.055757 0.055437 0.061729
v -0.055757 0.154586 0.061729
v -0.084358 0.154586 0.062879
v -0.133863 0.055437 0.061483
v -0.084358 0.055437 0.062879
v -0.084358 0.154586 0.062879
v -0.133863 0.154586 0.061483
v -0.136451 0.055437 0.061378
v -0.133863 0.055437 0.061483
v -0.133863 0.154586 0.061483
v -0.136451 0.154586 0.061378
v -0.183043 0.055437 0.059483
v -0.183043 0.154586 0.059483
v -0.185631 0.055437 0.059379
v -0.185631 0.154586 0.059379
v -0.187335 0.055437 0.057987
v -0.185631 0.055437 0.059379
v -0.185631 0.154586 0.059379
v -0.187335 0.154586 0.057987
v -0.188376 0.055437 0.055632
v -0.187335 0.055437 0.057987
v -0.187335 0.154586 0.057987
v -0.188376 0.154586 0.055632
v -0.222713 0.055437 -0.022103
v -0.222713 0.154586 -0.022103
v -0.224346 0.055437 -0.025801
v -0.222713 0.055437 -0.022103
v -0.222713 0.154586 -0.022103
v -0.224346 0.154586 -0.025801
v -0.233904 0.055437 -0.047487
v -0.224346 0.055437 -0.025801
v -0.224346 0.154586 -0.025801
v -0.233904 0.154586 -0.047487
v -0.243447 0.055437 -0.069213
v -0.233904 0.055437 -0.047487
v -0.233904 0.154586 -0.047487
v -0.243447 0.154586 -0.069213
v -0.260894 0.055437 -0.109142
v -0.243447 0.055437 -0.069213
v -0.243447 0.154586 -0.069213
v -0.260894 0.154586 -0.109142
v -0.268004 0.055437 -0.125526
v -0.260894 0.055437 -0.109142
v -0.260894 0.154586 -0.109142
v -0.268004 0.154586 -0.125526
v -0.280104 0.055437 -0.153805
v -0.268004 0.055437 -0.125526
v -0.268004 0.154586 -0.125526
v -0.280104 0.154586 -0.153805
v -0.288836 0.055437 -0.174189
v -0.280104 0.055437 -0.153805
v -0.280104 0.154586 -0.153805
v -0.288836 0.154586 -0.174189
v -0.307146 0.055437 -0.216481
v -0.288836 0.055437 -0.174189
v -0.288836 0.154586 -0.174189
v -0.307146 0.154586 -0.216481
v -0.316280 0.055437 -0.237382
v -0.307146 0.055437 -0.216481
v -0.307146 0.154586 -0.216481
v -0.316280 0.154586 -0.237382
v -0.325106 0.055437 -0.257446
v -0.316280 0.055437 -0.237382
v -0.316280 0.154586 -0.237382
v -0.325106 0.154586 -0.257446
v -0.333402 0.055437 -0.276170
v -0.325106 0.055437 -0.257446
v -0.325106 0.154586 -0.257446
v -0.333402 0.154586 -0.276170
v -0.347518 0.055437 -0.307581
v -0.333402 0.055437 -0.276170
v -0.333402 0.154586 -0.276170
v -0.347518 0.154586 -0.307581
v -0.352895 0.055437 -0.319259
v -0.347518 0.055437 -0.307581
v -0.347518 0.154586 -0.307581
v -0.352895 0.154586 -0.319259
v -0.357335 0.055437 -0.327559
v -0.352895 0.055437 -0.319259
v -0.352895 0.154586 -0.319259
v -0.357335 0.154586 -0.327559
v -0.360840 0.055437 -0.329780
v -0.357335 0.055437 -0.327559
v -0.357335 0.154586 -0.327559
v -0.360840 0.154586 -0.329780
v -0.363501 0.055437 -0.324218
v -0.360840 0.055437 -0.329780
v -0.360840 0.154586 -0.329780
v -0.363501 0.154586 -0.324218
v -0.365440 0.055437 -0.309246
v -0.363501 0.055437 -0.324218
v -0.363501 0.154586 -0.324218
v -0.365440 0.154586 -0.309246
v -0.366782 0.055437 -0.283242
v -0.365440 0.055437 -0.309246
v -0.365440 0.154586 -0.309246
v -0.366782 0.154586 -0.283242
v -0.367651 0.055437 -0.244582
v -0.366782 0.055437 -0.283242
v -0.366782 0.154586 -0.283242
v -0.367651 0.154586 -0.244582
v -0.368171 0.055437 -0.191641
v -0.367651 0.055437 -0.244582
v -0.367651 0.154586 -0.244582
v -0.368171 0.154586 -0.191641
v -0.368467 0.055437 -0.122796
v -0.368171 0.055437 -0.191641
v -0.368171 0.154586 -0.191641
v -0.368467 0.154586 -0.122796
v -0.365259 0.055031 0.210058
v -0.365259 0.055031 0.446353
v -0.365259 0.153888 0.210058
v -0.365259 0.153888 0.446353
v -0.122631 0.055031 0.210058
v 0.118651 0.055031 0.218405
v -0.122631 0.153888 0.210058
v 0.118651 0.153888 0.218405
v -0.366698 0.119522 -0.402981
v -0.366698 0.119522 -0.474991
v -0.366698 0.089396 -0.402981
v -0.366698 0.089396 -0.474991
v -0.292758 0.119522 -0.402981
v -0.219229 0.119522 -0.405525
v -0.292758 0.089396 -0.402981
v -0.219229 0.089396 -0.405525
v -0.185920 0.055437 -0.344528
v -0.199211 0.055437 -0.379316
v -0.200732 0.055437 -0.397251
v -0.194025 0.055437 -0.394520
v -0.187474 0.055437 -0.391524
v -0.142468 0.055437 -0.369933
v -0.127056 0.055437 -0.362406
v -0.110195 0.055437 -0.354133
v -0.091994 0.055437 -0.345171
v 0.015352 0.055437 -0.291916
v 0.039334 0.055437 -0.279956
v 0.140042 0.055437 -0.229552
v 0.165874 0.055437 -0.216582
v 0.243221 0.055437 -0.177655
v 0.268594 0.055437 -0.164854
v 0.341972 0.055437 -0.127734
v 0.365159 0.055437 -0.115969
v 0.387529 0.055437 -0.104598
v 0.483368 0.055437 -0.055559
v 0.498578 0.055437 -0.047694
v 0.512217 0.055437 -0.040602
v 0.524177 0.055437 -0.034339
v 0.542629 0.055437 -0.024514
v 0.548905 0.055437 -0.021060
v 0.553072 0.055437 -0.018651
v 0.555020 0.055437 -0.017342
v 0.550644 0.055437 -0.007236
v 0.482285 0.055437 0.025519
v 0.452897 0.055437 0.042355
v 0.417608 0.055437 0.062292
v 0.386140 0.055437 0.079427
v 0.358576 0.055437 0.093721
v 0.335006 0.055437 0.105132
v 0.315516 0.055437 0.113620
v 0.300192 0.055437 0.119145
v 0.289120 0.055437 0.121665
v 0.282389 0.055437 0.121142
v 0.275082 0.055437 0.109325
v 0.271589 0.055437 0.085928
v 0.270016 0.055437 0.064480
v -0.107715 0.055437 -0.201945
v -0.114273 0.055437 -0.202592
v -0.119031 0.055437 -0.205306
v -0.124384 0.055437 -0.210864
v -0.130419 0.055437 -0.219448
v -0.137225 0.055437 -0.231235
v -0.144891 0.055437 -0.246407
v -0.153505 0.055437 -0.265142
v -0.163156 0.055437 -0.287621
v -0.173931 0.055437 -0.314023
v 0.540894 0.055437 -0.003999
v -0.095293 0.055437 -0.199686
v 0.525214 0.055437 0.003047
v 0.265807 0.055437 0.042543
v 0.505158 0.055437 0.013141
v -0.078766 0.055437 -0.195471
v -0.058983 0.055437 -0.189606
v -0.036798 0.055437 -0.182396
v 0.260467 0.055437 0.027031
v -0.013063 0.055437 -0.174149
v 0.253175 0.055437 0.013880
v 0.011371 0.055437 -0.165168
v 0.242994 0.055437 -0.000885
v 0.035652 0.055437 -0.155761
v 0.230402 0.055437 -0.016786
v 0.058927 0.055437 -0.146232
v 0.215874 0.055437 -0.033343
v 0.080343 0.055437 -0.136889
v 0.199887 0.055437 -0.050077
v 0.099050 0.055437 -0.128035
v 0.182915 0.055437 -0.066510
v 0.165435 0.055437 -0.082161
v 0.114711 0.055437 -0.119641
v 0.147924 0.055437 -0.096553
v 0.130857 0.055437 -0.109206
v -0.200732 0.154586 -0.397251
v -0.199211 0.154586 -0.379316
v -0.185920 0.154586 -0.344528
v -0.187474 0.154586 -0.391524
v -0.194025 0.154586 -0.394520
v -0.127056 0.154586 -0.362406
v -0.142468 0.154586 -0.369933
v -0.091994 0.154586 -0.345171
v -0.110195 0.154586 -0.354133
v 0.039334 0.154586 -0.279956
v 0.015352 0.154586 -0.291916
v 0.165874 0.154586 -0.216582
v 0.140042 0.154586 -0.229552
v 0.268594 0.154586 -0.164854
v 0.243221 0.154586 -0.177655
v 0.365159 0.154586 -0.115969
v 0.341972 0.154586 -0.127734
v 0.483368 0.154586 -0.055559
v 0.387529 0.154586 -0.104598
v 0.512217 0.154586 -0.040602
v 0.498578 0.154586 -0.047694
v 0.542629 0.154586 -0.024514
v 0.524177 0.154586 -0.034339
v 0.553072 0.154586 -0.018651
v 0.548905 0.154586 -0.021060
v 0.550644 0.154586 -0.007236
v 0.555020 0.154586 -0.017342
v 0.417608 0.154586 0.062292
v 0.452897 0.154586 0.042355
v 0.482285 0.154586 0.025519
v 0.358576 0.154586 0.093721
v 0.386140 0.154586 0.079427
v 0.315516 0.154586 0.113620
v 0.335006 0.154586 0.105132
v 0.289120 0.154586 0.121665
v 0.300192 0.154586 0.119145
v 0.275082 0.154586 0.109325
v 0.282389 0.154586 0.121142
v 0.270016 0.154586 0.064480
v 0.271589 0.154586 0.085928
v -0.119031 0.154586 -0.205306
v -0.114273 0.154586 -0.202592
v -0.107715 0.154586 -0.201945
v -0.130419 0.154586 -0.219448
v -0.124384 0.154586 -0.210864
v -0.144891 0.154586 -0.246407
v -0.137225 0.154586 -0.231235
v -0.163156 0.154586 -0.287621
v -0.153505 0.154586 -0.265142
v -0.173931 0.154586 -0.314023
v 0.540894 0.154586 -0.003999
v -0.095293 0.154586 -0.199686
v 0.525214 0.154586 0.003047
v 0.265807 0.154586 0.042543
v 0.505158 0.154586 0.013141
v -0.078766 0.154586 -0.195471
v -0.058983 0.154586 -0.189606
v -0.036798 0.154586 -0.182396
v 0.260467 0.154586 0.027031
v -0.013063 0.154586 -0.174149
v 0.253175 0.154586 0.013880
v 0.011371 0.154586 -0.165168
v 0.242994 0.154586 -0.000885
v 0.035652 0.154586 -0.155761
v 0.230402 0.154586 -0.016786
v 0.058927 0.154586 -0.146232
v 0.215874 0.154586 -0.033343
v 0.080343 0.154586 -0.136889
v 0.199887 0.154586 -0.050077
v 0.099050 0.154586 -0.128035
v 0.182915 0.154586 -0.066510
v 0.165435 0.154586 -0.082161
v 0.114711 0.154586 -0.119641
v 0.147924 0.154586 -0.096553
v 0.130857 0.154586 -0.109206
v -0.185920 0.055437 -0.344528
v -0.199211 0.055437 -0.379316
v -0.199211 0.154586 -0.379316
v -0.185920 0.154586 -0.344528
v -0.173931 0.055437 -0.314023
v -0.185920 0.055437 -0.344528
v -0.185920 0.154586 -0.344528
v -0.173931 0.154586 -0.314023
v -0.163156 0.055437 -0.287621
v -0.173931 0.055437 -0.314023
v -0.173931 0.154586 -0.314023
v -0.163156 0.154586 -0.287621
v -0.153505 0.055437 -0.265142
v -0.163156 0.055437 -0.287621
v -0.163156 0.154586 -0.287621
v -0.153505 0.154586 -0.265142
v -0.144891 0.055437 -0.246407
v -0.153505 0.055437 -0.265142
v -0.153505 0.154586 -0.265142
v -0.144891 0.154586 -0.246407
v -0.137225 0.055437 -0.231235
v -0.144891 0.055437 -0.246407
v -0.144891 0.154586 -0.246407
v -0.137225 0.154586 -0.231235
v -0.130419 0.055437 -0.219448
v -0.137225 0.055437 -0.231235
v -0.137225 0.154586 -0.231235
v -0.130419 0.154586 -0.219448
v -0.124384 0.055437 -0.210864
v -0.130419 0.055437 -0.219448
v -0.130419 0.154586 -0.219448
v -0.124384 0.154586 -0.210864
v -0.119031 0.055437 -0.205306
v -0.124384 0.055437 -0.210864
v -0.124384 0.154586 -0.210864
v -0.119031 0.154586 -0.205306
v -0.114273 0.055437 -0.202592
v -0.119031 0.055437 -0.205306
v -0.119031 0.154586 -0.205306
v -0.114273 0.154586 -0.202592
v -0.107715 0.055437 -0.201945
v -0.114273 0.055437 -0.202592
v -0.114273 0.154586 -0.202592
v -0.107715 0.154586 -0.201945
v -0.095293 0.055437 -0.199686
v -0.107715 0.055437 -0.201945
v -0.107715 0.154586 -0.201945
v -0.095293 0.154586 -0.199686
v -0.078766 0.055437 -0.195471
v -0.095293 0.055437 -0.199686
v -0.095293 0.154586 -0.199686
v -0.078766 0.154586 -0.195471
v -0.058983 0.055437 -0.189606
v -0.078766 0.055437 -0.195471
v -0.078766 0.154586 -0.195471
v -0.058983 0.154586 -0.189606
v -0.036798 0.055437 -0.182396
v -0.058983 0.055437 -0.189606
v -0.058983 0.154586 -0.189606
v -0.036798 0.154586 -0.182396
v -0.013063 0.055437 -0.174149
v -0.036798 0.055437 -0.182396
v -0.036798 0.154586 -0.182396
v -0.013063 0.154586 -0.174149
v 0.011371 0.055437 -0.165168
v -0.013063 0.055437 -0.174149
v -0.013063 0.154586 -0.174149
v 0.011371 0.154586 -0.165168
v 0.035652 0.055437 -0.155761
v 0.011371 0.055437 -0.165168
v 0.011371 0.154586 -0.165168
v 0.035652 0.154586 -0.155761
v 0.058927 0.055437 -0.146232
v 0.035652 0.055437 -0.155761
v 0.035652 0.154586 -0.155761
v 0.058927 0.154586 -0.146232
v 0.080343 0.055437 -0.136889
v 0.058927 0.055437 -0.146232
v 0.058927 0.154586 -0.146232
v 0.080343 0.154586 -0.136889
v 0.099050 0.055437 -0.128035
v 0.080343 0.055437 -0.136889
v 0.080343 0.154586 -0.136889
v 0.099050 0.154586 -0.128035
v 0.114711 0.055437 -0.119641
v 0.099050 0.055437 -0.128035
v 0.099050 0.154586 -0.128035
v 0.114711 0.154586 -0.119641
v 0.130857 0.055437 -0.109206
v 0.114711 0.055437 -0.119641
v 0.114711 0.154586 -0.119641
v 0.130857 0.154586 -0.109206
v 0.147924 0.055437 -0.096553
v 0.130857 0.055437 -0.109206
v 0.130857 0.154586 -0.109206
v 0.147924 0.154586 -0.096553
v 0.165435 0.055437 -0.082161
v 0.147924 0.055437 -0.096553
v 0.147924 0.154586 -0.096553
v 0.165435 0.154586 -0.082161
v 0.182915 0.055437 -0.066510
v 0.165435 0.055437 -0.082161
v 0.165435 0.154586 -0.082161
v 0.182915 0.154586 -0.066510
v 0.199887 0.055437 -0.050077
v 0.182915 0.055437 -0.066510
v 0.182915 0.154586 -0.066510
v 0.199887 0.154586 -0.050077
v 0.215874 0.055437 -0.033343
v 0.199887 0.055437 -0.050077
v 0.199887 0.154586 -0.050077
v 0.215874 0.154586 -0.033343
v 0.230402 0.055437 -0.016786
v 0.215874 0.055437 -0.033343
v 0.215874 0.154586 -0.033343
v 0.230402 0.154586 -0.016786
v 0.242994 0.055437 -0.000885
v 0.230402 0.055437 -0.016786
v 0.230402 0.154586 -0.016786
v 0.242994 0.154586 -0.000885
v 0.253175 0.055437 0.013880
v 0.242994 0.055437 -0.000885
v 0.242994 0.154586 -0.000885
v 0.253175 0.154586 0.013880
v 0.260467 0.055437 0.027031
v 0.253175 0.055437 0.013880
v 0.253175 0.154586 0.013880
v 0.260467 0.154586 0.027031
v 0.265807 0.055437 0.042543
v 0.260467 0.055437 0.027031
v 0.260467 0.154586 0.027031
v 0.265807 0.154586 0.042543
v 0.270016 0.055437 0.064480
v 0.265807 0.055437 0.042543
v 0.265807 0.154586 0.042543
v 0.270016 0.154586 0.064480
v 0.271589 0.055437 0.085928
v 0.270016 0.055437 0.064480
v 0.270016 0.154586 0.064480
v 0.271589 0.154586 0.085928
v 0.275082 0.055437 0.109325
v 0.271589 0.055437 0.085928
v 0.271589 0.154586 0.085928
v 0.275082 0.154586 0.109325
v 0.282389 0.055437 0.121142
v 0.275082 0.055437 0.109325
v 0.275082 0.154586 0.109325
v 0.282389 0.154586 0.121142
v 0.289120 0.055437 0.121665
v 0.282389 0.055437 0.121142
v 0.282389 0.154586 0.121142
v 0.289120 0.154586 0.121665
v 0.300192 0.055437 0.119145
v 0.289120 0.055437 0.121665
v 0.289120 0.154586 0.121665
v 0.300192 0.154586 0.119145
v 0.315516 0.055437 0.113620
v 0.300192 0.055437 0.119145
v 0.300192 0.154586 0.119145
v 0.315516 0.154586 0.113620
v 0.335006 0.055437 0.105132
v 0.315516 0.055437 0.113620
v 0.315516 0.154586 0.113620
v 0.335006 0.154586 0.105132
v 0.358576 0.055437 0.093721
v 0.335006 0.055437 0.105132
v 0.335006 0.154586 0.105132
v 0.358576 0.154586 0.093721
v 0.386140 0.055437 0.079427
v 0.358576 0.055437 0.093721
v 0.358576 0.154586 0.093721
v 0.386140 0.154586 0.079427
v 0.417608 0.055437 0.062292
v 0.386140 0.055437 0.079427
v 0.386140 0.154586 0.079427
v 0.417608 0.154586 0.062292
v 0.452897 0.055437 0.042355
v 0.417608 0.055437 0.062292
v 0.417608 0.154586 0.062292
v 0.452897 0.154586 0.042355
v 0.482285 0.055437 0.025519
v 0.452897 0.055437 0.042355
v 0.452897 0.154586 0.042355
v 0.482285 0.154586 0.025519
v 0.505158 0.055437 0.013141
v 0.482285 0.055437 0.025519
v 0.482285 0.154586 0.025519
v 0.505158 0.154586 0.013141
v 0.525214 0.055437 0.003047
v 0.505158 0.055437 0.013141
v 0.505158 0.154586 0.013141
v 0.525214 0.154586 0.003047
v 0.540894 0.055437 -0.003999
v 0.525214 0.055437 0.003047
v 0.525214 0.154586 0.003047
v 0.540894 0.154586 -0.003999
v 0.550644 0.055437 -0.007236
v 0.540894 0.055437 -0.003999
v 0.540894 0.154586 -0.003999
v 0.550644 0.154586 -0.007236
v 0.555020 0.055437 -0.017342
v 0.550644 0.055437 -0.007236
v 0.550644 0.154586 -0.007236
v 0.555020 0.154586 -0.017342
v 0.553072 0.055437 -0.018651
v 0.555020 0.055437 -0.017342
v 0.555020 0.154586 -0.017342
v 0.553072 0.154586 -0.018651
v 0.548905 0.055437 -0.021060
v 0.553072 0.055437 -0.018651
v 0.553072 0.154586 -0.018651
v 0.548905 0.154586 -0.021060
v 0.542629 0.055437 -0.024514
v 0.548905 0.055437 -0.021060
v 0.548905 0.154586 -0.021060
v 0.542629 0.154586 -0.024514
v 0.524177 0.055437 -0.034339
v 0.542629 0.055437 -0.024514
v 0.542629 0.154586 -0.024514
v 0.524177 0.154586 -0.034339
v 0.512217 0.055437 -0.040602
v 0.524177 0.055437 -0.034339
v 0.524177 0.154586 -0.034339
v 0.512217 0.154586 -0.040602
v 0.498578 0.055437 -0.047694
v 0.512217 0.055437 -0.040602
v 0.512217 0.154586 -0.040602
v 0.498578 0.154586 -0.047694
v 0.483368 0.055437 -0.055559
v 0.498578 0.055437 -0.047694
v 0.498578 0.154586 -0.047694
v 0.483368 0.154586 -0.055559
v 0.387529 0.055437 -0.104598
v 0.483368 0.055437 -0.055559
v 0.483368 0.154586 -0.055559
v 0.387529 0.154586 -0.104598
v 0.365159 0.055437 -0.115969
v 0.387529 0.055437 -0.104598
v 0.387529 0.154586 -0.104598
v 0.365159 0.154586 -0.115969
v 0.341972 0.055437 -0.127734
v 0.365159 0.055437 -0.115969
v 0.365159 0.154586 -0.115969
v 0.341972 0.154586 -0.127734
v 0.268594 0.055437 -0.164854
v 0.341972 0.055437 -0.127734
v 0.341972 0.154586 -0.127734
v 0.268594 0.154586 -0.164854
v 0.243221 0.055437 -0.177655
v 0.268594 0.055437 -0.164854
v 0.268594 0.154586 -0.164854
v 0.243221 0.154586 -0.177655
v 0.165874 0.055437 -0.216582
v 0.243221 0.055437 -0.177655
v 0.243221 0.154586 -0.177655
v 0.165874 0.154586 -0.216582
v 0.140042 0.055437 -0.229552
v 0.165874 0.055437 -0.216582
v 0.165874 0.154586 -0.216582
v 0.140042 0.154586 -0.229552
v 0.039334 0.055437 -0.279956
v 0.140042 0.055437 -0.229552
v 0.140042 0.154586 -0.229552
v 0.039334 0.154586 -0.279956
v 0.015352 0.055437 -0.291916
v 0.039334 0.055437 -0.279956
v 0.039334 0.154586 -0.279956
v 0.015352 0.154586 -0.291916
v -0.091994 0.055437 -0.345171
v 0.015352 0.055437 -0.291916
v 0.015352 0.154586 -0.291916
v -0.091994 0.154586 -0.345171
v -0.110195 0.055437 -0.354133
v -0.091994 0.055437 -0.345171
v -0.091994 0.154586 -0.345171
v -0.110195 0.154586 -0.354133
v -0.127056 0.055437 -0.362406
v -0.110195 0.055437 -0.354133
v -0.110195 0.154586 -0.354133
v -0.127056 0.154586 -0.362406
v -0.142468 0.055437 -0.369933
v -0.127056 0.055437 -0.362406
v -0.127056 0.154586 -0.362406
v -0.142468 0.154586 -0.369933
v -0.187474 0.055437 -0.391524
v -0.142468 0.055437 -0.369933
v -0.142468 0.154586 -0.369933
v -0.187474 0.154586 -0.391524
v -0.194025 0.055437 -0.394520
v -0.187474 0.055437 -0.391524
v -0.187474 0.154586 -0.391524
v -0.194025 0.154586 -0.394520
v -0.200732 0.055437 -0.397251
v -0.194025 0.055437 -0.394520
v -0.194025 0.154586 -0.394520
v -0.200732 0.154586 -0.397251
v -0.199211 0.055437 -0.379316
v -0.200732 0.055437 -0.397251
v -0.200732 0.154586 -0.397251
v -0.199211 0.154586 -0.379316
v -0.369115 0.055437 0.100985
v -0.368467 0.055437 -0.122796
v -0.368171 0.055437 -0.191641
v -0.367651 0.055437 -0.244582
v -0.366782 0.055437 -0.283242
v -0.365440 0.055437 -0.309246
v -0.363501 0.055437 -0.324218
v -0.360840 0.055437 -0.329780
v -0.357335 0.055437 -0.327559
v -0.352895 0.055437 -0.319259
v -0.347518 0.055437 -0.307581
v -0.333402 0.055437 -0.276170
v -0.325106 0.055437 -0.257446
v -0.316280 0.055437 -0.237382
v -0.307146 0.055437 -0.216481
v -0.288836 0.055437 -0.174189
v -0.280104 0.055437 -0.153805
v -0.185631 0.055437 0.059379
v -0.183043 0.055437 0.059483
v -0.136451 0.055437 0.061378
v -0.056236 0.055437 0.002670
v -0.065585 0.055437 -0.022844
v -0.078445 0.055437 -0.058555
v -0.087124 0.055437 -0.088418
v -0.089284 0.055437 -0.105875
v -0.084671 0.055437 -0.109683
v -0.071936 0.055437 -0.106035
v -0.052316 0.055437 -0.098617
v -0.028885 0.055437 -0.088591
v -0.004208 0.055437 -0.076507
v 0.018045 0.055437 -0.063017
v 0.037299 0.055437 -0.048399
v 0.053465 0.055437 -0.032765
v 0.066448 0.055437 -0.016225
v 0.076159 0.055437 0.001111
v 0.082505 0.055437 0.019132
v 0.085392 0.055437 0.037731
v 0.084728 0.055437 0.063509
v 0.078134 0.055437 0.080918
v 0.060794 0.055437 0.091402
v 0.048759 0.055437 0.095421
v 0.040118 0.055437 0.097001
v 0.028589 0.055437 0.098480
v 0.014365 0.055437 0.099843
v -0.002358 0.055437 0.101084
v -0.021385 0.055437 0.102192
v -0.042521 0.055437 0.103156
v -0.065572 0.055437 0.103970
v -0.090340 0.055437 0.104621
v -0.116633 0.055437 0.105101
v -0.144255 0.055437 0.105399
v -0.173010 0.055437 0.105507
v -0.176797 0.055437 0.105507
v -0.179387 0.055437 0.105507
v -0.369122 0.055437 0.103558
v -0.268004 0.055437 -0.125526
v -0.048336 0.055437 0.025060
v -0.260894 0.055437 -0.109142
v -0.042428 0.055437 0.042735
v -0.243447 0.055437 -0.069213
v -0.039055 0.055437 0.054108
v -0.233904 0.055437 -0.047487
v -0.040064 0.055437 0.058833
v -0.224346 0.055437 -0.025801
v -0.055757 0.055437 0.061729
v -0.222713 0.055437 -0.022103
v -0.084358 0.055437 0.062879
v -0.188376 0.055437 0.055632
v -0.133863 0.055437 0.061483
v -0.187335 0.055437 0.057987
v -0.368171 0.154586 -0.191641
v -0.368467 0.154586 -0.122796
v -0.369115 0.154586 0.100985
v -0.366782 0.154586 -0.283242
v -0.367651 0.154586 -0.244582
v -0.363501 0.154586 -0.324218
v -0.365440 0.154586 -0.309246
v -0.357335 0.154586 -0.327559
v -0.360840 0.154586 -0.329780
v -0.347518 0.154586 -0.307581
v -0.352895 0.154586 -0.319259
v -0.325106 0.154586 -0.257446
v -0.333402 0.154586 -0.276170
v -0.307146 0.154586 -0.216481
v -0.316280 0.154586 -0.237382
v -0.280104 0.154586 -0.153805
v -0.288836 0.154586 -0.174189
v -0.136451 0.154586 0.061378
v -0.183043 0.154586 0.059483
v -0.185631 0.154586 0.059379
v -0.078445 0.154586 -0.058555
v -0.065585 0.154586 -0.022844
v -0.056236 0.154586 0.002670
v -0.089284 0.154586 -0.105875
v -0.087124 0.154586 -0.088418
v -0.071936 0.154586 -0.106035
v -0.084671 0.154586 -0.109683
v -0.028885 0.154586 -0.088591
v -0.052316 0.154586 -0.098617
v 0.018045 0.154586 -0.063017
v -0.004208 0.154586 -0.076507
v 0.053465 0.154586 -0.032765
v 0.037299 0.154586 -0.048399
v 0.076159 0.154586 0.001111
v 0.066448 0.154586 -0.016225
v 0.085392 0.154586 0.037731
v 0.082505 0.154586 0.019132
v 0.078134 0.154586 0.080918
v 0.084728 0.154586 0.063509
v 0.048759 0.154586 0.095421
v 0.060794 0.154586 0.091402
v 0.028589 0.154586 0.098480
v 0.040118 0.154586 0.097001
v -0.002358 0.154586 0.101084
v 0.014365 0.154586 0.099843
v -0.042521 0.154586 0.103156
v -0.021385 0.154586 0.102192
v -0.090340 0.154586 0.104621
v -0.065572 0.154586 0.103970
v -0.144255 0.154586 0.105399
v -0.116633 0.154586 0.105101
v -0.176797 0.154586 0.105507
v -0.173010 0.154586 0.105507
v -0.369122 0.154586 0.103558
v -0.179387 0.154586 0.105507
v -0.268004 0.154586 -0.125526
v -0.048336 0.154586 0.025060
v -0.260894 0.154586 -0.109142
v -0.042428 0.154586 0.042735
v -0.243447 0.154586 -0.069213
v -0.039055 0.154586 0.054108
v -0.233904 0.154586 -0.047487
v -0.040064 0.154586 0.058833
v -0.224346 0.154586 -0.025801
v -0.055757 0.154586 0.061729
v -0.222713 0.154586 -0.022103
v -0.084358 0.154586 0.062879
v -0.188376 0.154586 0.055632
v -0.133863 0.154586 0.061483
v -0.187335 0.154586 0.057987
v -0.369115 0.055437 0.100985
v -0.368467 0.055437 -0.122796
v -0.368467 0.154586 -0.122796
v -0.369115 0.154586 0.100985
v -0.369122 0.055437 0.103558
v -0.369122 0.154586 0.103558
v -0.179387 0.055437 0.105507
v -0.369122 0.055437 0.103558
v -0.369122 0.154586 0.103558
v -0.179387 0.154586 0.105507
v -0.176797 0.055437 0.105507
v -0.179387 0.055437 0.105507
v -0.179387 0.154586 0.105507
v -0.176797 0.154586 0.105507
v -0.173010 0.055437 0.105507
v -0.176797 0.055437 0.105507
v -0.176797 0.154586 0.105507
v -0.173010 0.154586 0.105507
v -0.144255 0.055437 0.105399
v -0.173010 0.055437 0.105507
v -0.173010 0.154586 0.105507
v -0.144255 0.154586 0.105399
v -0.116633 0.055437 0.105101
v -0.144255 0.055437 0.105399
v -0.144255 0.154586 0.105399
v -0.116633 0.154586 0.105101
v -0.090340 0.055437 0.104621
v -0.116633 0.055437 0.105101
v -0.116633 0.154586 0.105101
v -0.090340 0.154586 0.104621
v -0.065572 0.055437 0.103970
v -0.090340 0.055437 0.104621
v -0.090340 0.154586 0.104621
v -0.065572 0.154586 0.103970
v -0.042521 0.055437 0.103156
v -0.065572 0.055437 0.103970
v -0.065572 0.154586 0.103970
v -0.042521 0.154586 0.103156
v -0.021385 0.055437 0.102192
v -0.042521 0.055437 0.103156
v -0.042521 0.154586 0.103156
v -0.021385 0.154586 0.102192
v -0.002358 0.055437 0.101084
v -0.021385 0.055437 0.102192
v -0.021385 0.154586 0.102192
v -0.002358 0.154586 0.101084
v 0.014365 0.055437 0.099843
v -0.002358 0.055437 0.101084
v -0.002358 0.154586 0.101084
v 0.014365 0.154586 0.099843
v 0.028589 0.055437 0.098480
v 0.014365 0.055437 0.099843
v 0.014365 0.154586 0.099843
v 0.028589 0.154586 0.098480
v 0.040118 0.055437 0.097001
v 0.028589 0.055437 0.098480
v 0.028589 0.154586 0.098480
v 0.040118 0.154586 0.097001
v 0.048759 0.055437 0.095421
v 0.040118 0.055437 0.097001
v 0.040118 0.154586 0.097001
v 0.048759 0.154586 0.095421
v 0.060794 0.055437 0.091402
v 0.048759 0.055437 0.095421
v 0.048759 0.154586 0.095421
v 0.060794 0.154586 0.091402
v 0.078134 0.055437 0.080918
v 0.060794 0.055437 0.091402
v 0.060794 0.154586 0.091402
v 0.078134 0.154586 0.080918
v 0.084728 0.055437 0.063509
v 0.078134 0.055437 0.080918
v 0.078134 0.154586 0.080918
v 0.084728 0.154586 0.063509
v 0.085392 0.055437 0.037731
v 0.084728 0.055437 0.063509
v 0.084728 0.154586 0.063509
v 0.085392 0.154586 0.037731
v 0.082505 0.055437 0.019132
v 0.085392 0.055437 0.037731
v 0.085392 0.154586 0.037731
v 0.082505 0.154586 0.019132
v 0.076159 0.055437 0.001111
v 0.082505 0.055437 0.019132
v 0.082505 0.154586 0.019132
v 0.076159 0.154586 0.001111
v 0.066448 0.055437 -0.016225
v 0.076159 0.055437 0.001111
v 0.076159 0.154586 0.001111
v 0.066448 0.154586 -0.016225
v 0.053465 0.055437 -0.032765
v 0.066448 0.055437 -0.016225
v 0.066448 0.154586 -0.016225
v 0.053465 0.154586 -0.032765
v 0.037299 0.055437 -0.048399
v 0.053465 0.055437 -0.032765
v 0.053465 0.154586 -0.032765
v 0.037299 0.154586 -0.048399
v 0.018045 0.055437 -0.063017
v 0.037299 0.055437 -0.048399
v 0.037299 0.154586 -0.048399
v 0.018045 0.154586 -0.063017
v -0.004208 0.055437 -0.076507
v 0.018045 0.055437 -0.063017
v 0.018045 0.154586 -0.063017
v -0.004208 0.154586 -0.076507
v -0.028885 0.055437 -0.088591
v -0.004208 0.055437 -0.076507
v -0.004208 0.154586 -0.076507
v -0.028885 0.154586 -0.088591
v -0.052316 0.055437 -0.098617
v -0.028885 0.055437 -0.088591
v -0.028885 0.154586 -0.088591
v -0.052316 0.154586 -0.098617
v -0.071936 0.055437 -0.106035
v -0.052316 0.055437 -0.098617
v -0.052316 0.154586 -0.098617
v -0.071936 0.154586 -0.106035
v -0.084671 0.055437 -0.109683
v -0.071936 0.055437 -0.106035
v -0.071936 0.154586 -0.106035
v -0.084671 0.154586 -0.109683
v -0.089284 0.055437 -0.105875
v -0.084671 0.055437 -0.109683
v -0.084671 0.154586 -0.109683
v -0.089284 0.154586 -0.105875
v -0.087124 0.055437 -0.088418
v -0.089284 0.055437 -0.105875
v -0.089284 0.154586 -0.105875
v -0.087124 0.154586 -0.088418
v -0.078445 0.055437 -0.058555
v -0.087124 0.055437 -0.088418
v -0.087124 0.154586 -0.088418
v -0.078445 0.154586 -0.058555
v -0.065585 0.055437 -0.022844
v -0.078445 0.055437 -0.058555
v -0.078445 0.154586 -0.058555
v -0.065585 0.154586 -0.022844
v -0.056236 0.055437 0.002670
v -0.065585 0.055437 -0.022844
v -0.065585 0.154586 -0.022844
v -0.056236 0.154586 0.002670
v -0.048336 0.055437 0.025060
v -0.056236 0.055437 0.002670
v -0.056236 0.154586 0.002670
v -0.048336 0.154586 0.025060
v -0.042428 0.055437 0.042735
v -0.048336 0.055437 0.025060
v -0.048336 0.154586 0.025060
v -0.042428 0.154586 0.042735
v -0.039055 0.055437 0.054108
v -0.042428 0.055437 0.042735
v -0.042428 0.154586 0.042735
v -0.039055 0.154586 0.054108
v -0.040064 0.055437 0.058833
v -0.039055 0.055437 0.054108
v -0.039055 0.154586 0.054108
v -0.040064 0.154586 0.058833
v -0.055757 0.055437 0.061729
v -0.040064 0.055437 0.058833
v -0.040064 0.154586 0.058833
v -0.055757 0.154586 0.061729
v -0.084358 0.055437 0.062879
v -0.055757 0.055437 0.061729
v -0.055757 0.154586 0.061729
v -0.084358 0.154586 0.062879
v -0.133863 0.055437 0.061483
v -0.084358 0.055437 0.062879
v -0.084358 0.154586 0.062879
v -0.133863 0.154586 0.061483
v -0.136451 0.055437 0.061378
v -0.133863 0.055437 0.061483
v -0.133863 0.154586 0.061483
v -0.136451 0.154586 0.061378
v -0.183043 0.055437 0.059483
v -0.183043 0.154586 0.059483
v -0.185631 0.055437 0.059379
v -0.185631 0.154586 0.059379
v -0.187335 0.055437 0.057987
v -0.185631 0.055437 0.059379
v -0.185631 0.154586 0.059379
v -0.187335 0.154586 0.057987
v -0.188376 0.055437 0.055632
v -0.187335 0.055437 0.057987
v -0.187335 0.154586 0.057987
v -0.188376 0.154586 0.055632
v -0.222713 0.055437 -0.022103
v -0.222713 0.154586 -0.022103
v -0.224346 0.055437 -0.025801
v -0.222713 0.055437 -0.022103
v -0.222713 0.154586 -0.022103
v -0.224346 0.154586 -0.025801
v -0.233904 0.055437 -0.047487
v -0.224346 0.055437 -0.025801
v -0.224346 0.154586 -0.025801
v -0.233904 0.154586 -0.047487
v -0.243447 0.055437 -0.069213
v -0.233904 0.055437 -0.047487
v -0.233904 0.154586 -0.047487
v -0.243447 0.154586 -0.069213
v -0.260894 0.055437 -0.109142
v -0.243447 0.055437 -0.069213
v -0.243447 0.154586 -0.069213
v -0.260894 0.154586 -0.109142
v -0.268004 0.055437 -0.125526
v -0.260894 0.055437 -0.109142
v -0.260894 0.154586 -0.109142
v -0.268004 0.154586 -0.125526
v -0.280104 0.055437 -0.153805
v -0.268004 0.055437 -0.125526
v -0.268004 0.154586 -0.125526
v -0.280104 0.154586 -0.153805
v -0.288836 0.055437 -0.174189
v -0.280104 0.055437 -0.153805
v -0.280104 0.154586 -0.153805
v -0.288836 0.154586 -0.174189
v -0.307146 0.055437 -0.216481
v -0.288836 0.055437 -0.174189
v -0.288836 0.154586 -0.174189
v -0.307146 0.154586 -0.216481
v -0.316280 0.055437 -0.237382
v -0.307146 0.055437 -0.216481
v -0.307146 0.154586 -0.216481
v -0.316280 0.154586 -0.237382
v -0.325106 0.055437 -0.257446
v -0.316280 0.055437 -0.237382
v -0.316280 0.154586 -0.237382
v -0.325106 0.154586 -0.257446
v -0.333402 0.055437 -0.276170
v -0.325106 0.055437 -0.257446
v -0.325106 0.154586 -0.257446
v -0.333402 0.154586 -0.276170
v -0.347518 0.055437 -0.307581
v -0.333402 0.055437 -0.276170
v -0.333402 0.154586 -0.276170
v -0.347518 0.154586 -0.307581
v -0.352895 0.055437 -0.319259
v -0.347518 0.055437 -0.307581
v -0.347518 0.154586 -0.307581
v -0.352895 0.154586 -0.319259
v -0.357335 0.055437 -0.327559
v -0.352895 0.055437 -0.319259
v -0.352895 0.154586 -0.319259
v -0.357335 0.154586 -0.327559
v -0.360840 0.055437 -0.329780
v -0.357335 0.055437 -0.327559
v -0.357335 0.154586 -0.327559
v -0.360840 0.154586 -0.329780
v -0.363501 0.055437 -0.324218
v -0.360840 0.055437 -0.329780
v -0.360840 0.154586 -0.329780
v -0.363501 0.154586 -0.324218
v -0.365440 0.055437 -0.309246
v -0.363501 0.055437 -0.324218
v -0.363501 0.154586 -0.324218
v -0.365440 0.154586 -0.309246
v -0.366782 0.055437 -0.283242
v -0.365440 0.055437 -0.309246
v -0.365440 0.154586 -0.309246
v -0.366782 0.154586 -0.283242
v -0.367651 0.055437 -0.244582
v -0.366782 0.055437 -0.283242
v -0.366782 0.154586 -0.283242
v -0.367651 0.154586 -0.244582
v -0.368171 0.055437 -0.191641
v -0.367651 0.055437 -0.244582
v -0.367651 0.154586 -0.244582
v -0.368171 0.154586 -0.191641
v -0.368467 0.055437 -0.122796
v -0.368171 0.055437 -0.191641
v -0.368171 0.154586 -0.191641
v -0.368467 0.154586 -0.122796
vn -0.0000 -1.0000 -0.0000
vn -0.0011 -1.0000 -0.0000
vn -0.0004 -1.0000 0.0003
vn -0.0000 -1.0000 0.0001
vn -0.0000 -1.0000 0.0011
vn 0.0005 -1.0000 0.0009
vn -0.0001 -1.0000 -0.0010
vn -0.0000 1.0000 -0.0000
vn 0.0001 1.0000 -0.0000
vn -0.0005 1.0000 0.0005
vn -0.0000 1.0000 0.0001
vn -0.0000 1.0000 -0.0005
vn 0.0001 1.0000 -0.0001
vn -0.0001 1.0000 0.0004
vn -0.0001 1.0000 -0.0005
vn -0.0000 1.0000 -0.0003
vn -0.0004 1.0000 -0.0005
vn 0.0002 1.0000 -0.0000
vn -0.0000 1.0000 -0.0001
vn 0.9341 -0.0000 -0.3569
vn 0.9307 -0.0000 -0.3658
vn 0.9259 -0.0000 -0.3779
vn 0.9189 -0.0000 -0.3945
vn 0.9086 -0.0000 -0.4177
vn 0.8925 -0.0000 -0.4510
vn 0.8660 -0.0000 -0.5000
vn 0.8181 -0.0000 -0.5751
vn 0.7203 -0.0000 -0.6937
vn 0.4952 -0.0000 -0.8688
vn 0.4955 -0.0000 -0.8686
vn 0.0982 -0.0000 -0.9952
vn 0.1789 -0.0000 -0.9839
vn 0.2471 -0.0000 -0.9690
vn 0.2842 -0.0000 -0.9588
vn 0.3091 -0.0000 -0.9510
vn 0.3282 -0.0000 -0.9446
vn 0.3450 -0.0000 -0.9386
vn 0.3613 -0.0000 -0.9325
vn 0.3789 -0.0000 -0.9254
vn 0.3999 -0.0000 -0.9166
vn 0.4278 -0.0000 -0.9039
vn 0.4724 -0.0000 -0.8814
vn 0.5428 -0.0000 -0.8399
vn 0.5956 -0.0000 -0.8033
vn 0.6349 -0.0000 -0.7726
vn 0.6671 -0.0000 -0.7450
vn 0.6956 -0.0000 -0.7184
vn 0.7231 -0.0000 -0.6908
vn 0.7517 -0.0000 -0.6595
vn 0.7840 -0.0000 -0.6208
vn 0.8233 -0.0000 -0.5677
vn 0.8746 -0.0000 -0.4849
vn 0.9455 -0.0000 -0.3255
vn 0.9821 -0.0000 -0.1884
vn 0.9973 -0.0000 -0.0731
vn 0.9890 -0.0000 -0.1477
vn 0.8505 -0.0000 -0.5259
vn 0.0775 -0.0000 -0.9970
vn -0.2219 -0.0000 -0.9751
vn -0.3392 -0.0000 -0.9407
vn -0.3993 -0.0000 -0.9168
vn -0.4357 -0.0000 -0.9001
vn -0.4358 -0.0000 -0.9001
vn -0.4604 -0.0000 -0.8877
vn -0.4782 -0.0000 -0.8782
vn -0.4919 -0.0000 -0.8707
vn -0.4971 -0.0000 -0.8677
vn -0.4759 -0.0000 -0.8795
vn -0.4496 -0.0000 -0.8933
vn -0.4496 -0.0000 -0.8932
vn -0.4099 -0.0000 -0.9121
vn -0.3151 -0.0000 -0.9491
vn -0.9177 -0.0000 -0.3974
vn -0.9177 -0.0000 -0.3973
vn -0.5577 -0.0000 0.8300
vn -0.5005 -0.0000 0.8657
vn -0.4822 -0.0000 0.8761
vn -0.4700 -0.0000 0.8827
vn -0.4639 -0.0000 0.8859
vn -0.4613 -0.0000 0.8872
vn -0.4593 -0.0000 0.8883
vn -0.4555 -0.0000 0.8902
vn -0.4531 -0.0000 0.8914
vn -0.4525 -0.0000 0.8918
vn -0.4514 -0.0000 0.8923
vn -0.4504 -0.0000 0.8928
vn -0.4496 -0.0000 0.8933
vn -0.4487 -0.0000 0.8937
vn -0.4476 -0.0000 0.8942
vn -0.4463 -0.0000 0.8949
vn -0.4444 -0.0000 0.8958
vn -0.4417 -0.0000 0.8971
vn -0.4405 -0.0000 0.8978
vn -0.4389 -0.0000 0.8986
vn -0.4325 -0.0000 0.9016
vn -0.4159 -0.0000 0.9094
vn -0.3771 -0.0000 0.9262
vn 0.9964 -0.0000 -0.0845
vn -0.0001 -1.0000 -0.0000
vn 0.0010 -1.0000 0.0001
vn 0.0007 -1.0000 0.0001
vn 0.0007 -0.9949 0.1009
vn -0.0000 -1.0000 -0.0011
vn -0.0000 -1.0000 0.0018
vn -0.0003 1.0000 -0.0000
vn 0.0127 0.9999 -0.0000
vn -0.0004 1.0000 0.0003
vn -0.0001 1.0000 -0.0000
vn 0.0004 1.0000 -0.0000
vn 0.0003 1.0000 -0.0000
vn 0.0016 0.9997 0.0255
vn -0.0000 1.0000 0.0028
vn -0.0000 1.0000 0.0005
vn -0.0004 1.0000 -0.0000
vn 1.0000 -0.0000 0.0028
vn 1.0000 -0.0000 0.0029
vn 1.0000 -0.0000 0.0027
vn 0.0103 -0.0000 -0.9999
vn -0.0000 -0.0000 -1.0000
vn -0.0038 -0.0000 -1.0000
vn -0.0108 -0.0000 -0.9999
vn -0.0183 -0.0000 -0.9998
vn -0.0263 -0.0000 -0.9997
vn -0.0353 -0.0000 -0.9994
vn -0.0456 -0.0000 -0.9990
vn -0.0581 -0.0000 -0.9983
vn -0.0740 -0.0000 -0.9973
vn -0.0954 -0.0000 -0.9954
vn -0.1273 -0.0000 -0.9919
vn -0.1269 -0.0000 -0.9919
vn -0.1799 -0.0000 -0.9837
vn -0.3167 -0.0000 -0.9485
vn -0.5174 -0.0000 -0.8557
vn -0.9352 -0.0000 -0.3542
vn -0.9997 -0.0000 -0.0257
vn -0.9882 -0.0000 0.1534
vn -0.9432 -0.0000 0.3321
vn -0.8724 -0.0000 0.4887
vn -0.7866 -0.0000 0.6174
vn -0.6952 -0.0000 0.7188
vn -0.6047 -0.0000 0.7965
vn -0.5184 -0.0000 0.8551
vn -0.4398 -0.0000 0.8981
vn -0.3934 -0.0000 0.9194
vn -0.3537 -0.0000 0.9354
vn -0.2754 -0.0000 0.9613
vn 0.6366 -0.0000 0.7712
vn 0.9924 -0.0000 -0.1228
vn 0.9603 -0.0000 -0.2791
vn 0.9409 -0.0000 -0.3388
vn 0.9389 -0.0000 -0.3441
vn 0.9430 -0.0000 -0.3327
vn 0.9484 -0.0000 -0.3170
vn 0.9587 -0.0000 -0.2843
vn 0.9780 -0.0000 0.2088
vn 0.1815 -0.0000 0.9834
vn 0.0402 -0.0000 0.9992
vn -0.0282 -0.0000 0.9996
vn -0.0406 -0.0000 0.9992
vn -0.0405 -0.0000 0.9992
vn -0.0404 -0.0000 0.9992
vn -0.0407 -0.0000 0.9992
vn -0.0401 -0.0000 0.9992
vn -0.6324 -0.0000 0.7747
vn -0.6326 -0.0000 0.7745
vn -0.9147 -0.0000 0.4042
vn -0.9146 -0.0000 0.4043
vn -0.9147 -0.0000 0.4041
vn -0.9148 -0.0000 0.4040
vn -0.9148 -0.0000 0.4039
vn -0.9151 -0.0000 0.4033
vn -0.9156 -0.0000 0.4022
vn -0.9163 -0.0000 0.4004
vn -0.9173 -0.0000 0.3981
vn -0.9194 -0.0000 0.3934
vn -0.9192 -0.0000 0.3938
vn -0.9177 -0.0000 0.3973
vn -0.9154 -0.0000 0.4027
vn -0.9153 -0.0000 0.4027
vn -0.9143 -0.0000 0.4051
vn -0.9121 -0.0000 0.4099
vn -0.9083 -0.0000 0.4182
vn -0.8818 -0.0000 0.4717
vn -0.5352 -0.0000 0.8447
vn 0.9021 -0.0000 0.4316
vn 0.9917 -0.0000 0.1284
vn 0.9987 -0.0000 0.0515
vn 0.9997 -0.0000 0.0225
vn 1.0000 -0.0000 0.0098
vn 1.0000 -0.0000 0.0043
vn -1.0000 -0.0000 -0.0000
vn 0.0346 -0.0000 -0.9994
vn 0.4261 -0.0000 0.9047
vn 0.0346 -0.0000 0.9994
vn -0.0000 -0.0000 1.0000
vn 0.4261 -0.0000 -0.9047
vn 0.0005 -1.0000 0.0008
vn -0.0001 -1.0000 -0.0009
vn 0.0007 -0.9950 0.0997
vt 0.000000 0.000000
vt 0.375000 0.000000
vt 0.625000 0.000000
vt 0.625000 0.250000
vt 0.375000 0.250000
vt 0.625000 0.500000
vt 0.375000 0.500000
vt 0.625000 0.750000
vt 0.375000 0.750000
vt 0.625000 1.000000
vt 0.375000 1.000000
vt 0.125000 0.500000
vt 0.125000 0.750000
vt 0.875000 0.500000
vt 0.875000 0.750000
s 1
usemtl #F8AE3BFD
f 1/1/1 2/1/1 3/1/1
f 3/1/1 4/1/1 5/1/1
f 5/1/1 6/1/1 7/1/1
f 7/1/1 8/1/2 9/1/1
f 9/1/1 10/1/3 11/1/1
f 11/1/1 12/1/4 13/1/1
f 13/1/1 14/1/5 15/1/1
f 15/1/1 16/1/6 17/1/1
f 17/1/1 18/1/1 19/1/1
f 19/1/1 20/1/7 21/1/1
f 21/1/1 22/1/1 23/1/1
f 23/1/1 24/1/1 25/1/1
f 25/1/1 26/1/1 27/1/1
f 28/1/1 29/1/4 30/1/1
f 30/1/1 31/1/1 32/1/1
f 32/1/1 33/1/1 34/1/1
f 34/1/1 35/1/1 36/1/1
f 36/1/1 37/1/1 38/1/1
f 38/1/1 39/1/1 40/1/1
f 41/1/1 42/1/1 43/1/1
f 43/1/1 44/1/1 45/1/1
f 45/1/1 46/1/1 47/1/1
f 47/1/1 48/1/1 49/1/1
f 49/1/1 50/1/1 1/1/1
f 1/1/1 3/1/1 5/1/1
f 5/1/1 7/1/1 9/1/1
f 9/1/1 11/1/1 13/1/1
f 13/1/1 15/1/1 17/1/1
f 17/1/1 19/1/1 21/1/1
f 21/1/1 23/1/1 25/1/1
f 25/1/1 27/1/1 51/1/1
f 28/1/1 30/1/1 32/1/1
f 32/1/1 34/1/1 36/1/1
f 36/1/1 38/1/1 40/1/1
f 52/1/1 41/1/1 43/1/1
f 43/1/1 45/1/1 47/1/1
f 47/1/1 49/1/1 1/1/1
f 1/1/1 5/1/1 9/1/1
f 9/1/1 13/1/1 17/1/1
f 17/1/1 21/1/1 25/1/1
f 25/1/1 51/1/1 53/1/1
f 28/1/1 32/1/1 36/1/1
f 36/1/1 40/1/1 54/1/1
f 52/1/1 43/1/1 47/1/1
f 47/1/1 1/1/1 9/1/1
f 9/1/1 17/1/1 25/1/1
f 25/1/1 53/1/1 55/1/1
f 55/1/1 28/1/1 36/1/1
f 56/1/1 52/1/1 47/1/1
f 47/1/1 9/1/1 25/1/1
f 25/1/1 55/1/1 36/1/1
f 57/1/1 56/1/1 47/1/1
f 25/1/1 36/1/1 54/1/1
f 58/1/1 57/1/1 47/1/1
f 25/1/1 54/1/1 59/1/1
f 60/1/1 58/1/1 47/1/1
f 25/1/1 59/1/1 61/1/1
f 62/1/1 60/1/1 47/1/1
f 25/1/1 61/1/1 63/1/1
f 64/1/1 62/1/1 47/1/1
f 25/1/1 63/1/1 65/1/1
f 66/1/1 64/1/1 47/1/1
f 25/1/1 65/1/1 67/1/1
f 68/1/1 66/1/1 47/1/1
f 25/1/1 67/1/1 69/1/1
f 70/1/1 68/1/1 47/1/1
f 25/1/1 69/1/1 71/1/1
f 70/1/1 47/1/1 25/1/1
f 25/1/1 71/1/1 72/1/1
f 73/1/1 70/1/1 25/1/1
f 25/1/1 72/1/1 74/1/1
f 75/1/1 73/1/1 25/1/1
f 25/1/1 74/1/1 75/1/1
f 76/1/8 77/1/8 78/1/8
f 79/1/8 80/1/8 76/1/8
f 81/1/8 82/1/9 79/1/8
f 83/1/8 84/1/10 81/1/8
f 85/1/8 86/1/11 83/1/8
f 87/1/8 88/1/12 85/1/8
f 89/1/13 90/1/14 87/1/8
f 91/1/8 92/1/15 89/1/13
f 93/1/8 94/1/16 91/1/8
f 95/1/8 96/1/17 93/1/8
f 97/1/8 98/1/8 95/1/8
f 99/1/8 100/1/18 97/1/8
f 101/1/8 102/1/8 99/1/8
f 103/1/8 104/1/19 105/1/8
f 106/1/8 107/1/8 103/1/8
f 108/1/8 109/1/8 106/1/8
f 110/1/8 111/1/8 108/1/8
f 112/1/8 113/1/8 110/1/8
f 114/1/8 115/1/8 112/1/8
f 116/1/8 117/1/8 118/1/8
f 119/1/8 120/1/8 116/1/8
f 121/1/8 122/1/8 119/1/8
f 123/1/8 124/1/8 121/1/8
f 78/1/8 125/1/8 123/1/8
f 79/1/8 76/1/8 78/1/8
f 83/1/8 81/1/8 79/1/8
f 87/1/8 85/1/8 83/1/8
f 91/1/8 89/1/13 87/1/8
f 95/1/8 93/1/8 91/1/8
f 99/1/8 97/1/8 95/1/8
f 126/1/8 101/1/8 99/1/8
f 106/1/8 103/1/8 105/1/8
f 110/1/8 108/1/8 106/1/8
f 114/1/8 112/1/8 110/1/8
f 116/1/8 118/1/8 127/1/8
f 121/1/8 119/1/8 116/1/8
f 78/1/8 123/1/8 121/1/8
f 83/1/8 79/1/8 78/1/8
f 91/1/8 87/1/8 83/1/8
f 99/1/8 95/1/8 91/1/8
f 128/1/8 126/1/8 99/1/8
f 110/1/8 106/1/8 105/1/8
f 129/1/8 114/1/8 110/1/8
f 121/1/8 116/1/8 127/1/8
f 83/1/8 78/1/8 121/1/8
f 99/1/8 91/1/8 83/1/8
f 130/1/8 128/1/8 99/1/8
f 110/1/8 105/1/8 130/1/8
f 121/1/8 127/1/8 131/1/8
f 99/1/8 83/1/8 121/1/8
f 110/1/8 130/1/8 99/1/8
f 121/1/8 131/1/8 132/1/8
f 129/1/8 110/1/8 99/1/8
f 121/1/8 132/1/8 133/1/8
f 134/1/8 129/1/8 99/1/8
f 121/1/8 133/1/8 135/1/8
f 136/1/8 134/1/8 99/1/8
f 121/1/8 135/1/8 137/1/8
f 138/1/8 136/1/8 99/1/8
f 121/1/8 137/1/8 139/1/8
f 140/1/8 138/1/8 99/1/8
f 121/1/8 139/1/8 141/1/8
f 142/1/8 140/1/8 99/1/8
f 121/1/8 141/1/8 143/1/8
f 144/1/8 142/1/8 99/1/8
f 121/1/8 143/1/8 145/1/8
f 146/1/8 144/1/8 99/1/8
f 99/1/8 121/1/8 145/1/8
f 147/1/8 146/1/8 99/1/8
f 99/1/8 145/1/8 148/1/8
f 149/1/8 147/1/8 99/1/8
f 99/1/8 148/1/8 150/1/8
f 150/1/8 149/1/8 99/1/8
f 151/1/20 152/1/20 153/1/20
f 153/1/20 154/1/20 151/1/20
f 155/1/21 156/1/21 157/1/21
f 157/1/21 158/1/21 155/1/21
f 159/1/22 160/1/22 161/1/22
f 161/1/22 162/1/22 159/1/22
f 163/1/23 164/1/23 165/1/23
f 165/1/23 166/1/23 163/1/23
f 167/1/24 168/1/24 169/1/24
f 169/1/24 170/1/24 167/1/24
f 171/1/25 172/1/25 173/1/25
f 173/1/25 174/1/25 171/1/25
f 175/1/26 176/1/26 177/1/26
f 177/1/26 178/1/26 175/1/26
f 179/1/27 180/1/27 181/1/27
f 181/1/27 182/1/27 179/1/27
f 183/1/28 184/1/28 185/1/28
f 185/1/28 186/1/28 183/1/28
f 187/1/29 188/1/29 189/1/30
f 189/1/30 190/1/30 187/1/29
f 191/1/31 192/1/31 193/1/31
f 193/1/31 194/1/31 191/1/31
f 195/1/32 196/1/32 197/1/32
f 197/1/32 198/1/32 195/1/32
f 199/1/33 200/1/33 201/1/33
f 201/1/33 202/1/33 199/1/33
f 203/1/34 204/1/34 205/1/34
f 205/1/34 206/1/34 203/1/34
f 207/1/35 208/1/35 209/1/35
f 209/1/35 210/1/35 207/1/35
f 211/1/36 212/1/36 213/1/36
f 213/1/36 214/1/36 211/1/36
f 215/1/37 216/1/37 217/1/37
f 217/1/37 218/1/37 215/1/37
f 219/1/38 220/1/38 221/1/38
f 221/1/38 222/1/38 219/1/38
f 223/1/39 224/1/39 225/1/39
f 225/1/39 226/1/39 223/1/39
f 227/1/40 228/1/40 229/1/40
f 229/1/40 230/1/40 227/1/40
f 231/1/41 232/1/41 233/1/41
f 233/1/41 234/1/41 231/1/41
f 235/1/42 236/1/42 237/1/42
f 237/1/42 238/1/42 235/1/42
f 239/1/43 240/1/43 241/1/43
f 241/1/43 242/1/43 239/1/43
f 243/1/44 244/1/44 245/1/44
f 245/1/44 246/1/44 243/1/44
f 247/1/45 248/1/45 249/1/45
f 249/1/45 250/1/45 247/1/45
f 251/1/46 252/1/46 253/1/46
f 253/1/46 254/1/46 251/1/46
f 255/1/47 256/1/47 257/1/47
f 257/1/47 258/1/47 255/1/47
f 259/1/48 260/1/48 261/1/48
f 261/1/48 262/1/48 259/1/48
f 263/1/49 264/1/49 265/1/49
f 265/1/49 266/1/49 263/1/49
f 267/1/50 268/1/50 269/1/50
f 269/1/50 270/1/50 267/1/50
f 271/1/51 272/1/51 273/1/51
f 273/1/51 274/1/51 271/1/51
f 275/1/52 276/1/52 277/1/52
f 277/1/52 278/1/52 275/1/52
f 279/1/53 280/1/53 281/1/53
f 281/1/53 282/1/53 279/1/53
f 283/1/54 284/1/54 285/1/54
f 285/1/54 286/1/54 283/1/54
f 287/1/55 288/1/55 289/1/55
f 289/1/55 290/1/55 287/1/55
f 291/1/56 292/1/56 293/1/56
f 293/1/56 294/1/56 291/1/56
f 295/1/57 296/1/57 297/1/57
f 297/1/57 298/1/57 295/1/57
f 299/1/58 300/1/58 301/1/58
f 301/1/58 302/1/58 299/1/58
f 303/1/59 304/1/59 305/1/59
f 305/1/59 306/1/59 303/1/59
f 307/1/60 308/1/60 309/1/60
f 309/1/60 310/1/60 307/1/60
f 311/1/61 312/1/61 313/1/61
f 313/1/61 314/1/61 311/1/61
f 315/1/62 316/1/62 317/1/63
f 317/1/63 318/1/63 315/1/62
f 319/1/64 320/1/64 321/1/64
f 321/1/64 322/1/64 319/1/64
f 323/1/65 324/1/65 325/1/65
f 325/1/65 326/1/65 323/1/65
f 327/1/66 328/1/66 329/1/66
f 329/1/66 330/1/66 327/1/66
f 331/1/67 332/1/67 333/1/67
f 333/1/67 334/1/67 331/1/67
f 335/1/68 336/1/68 337/1/68
f 337/1/68 338/1/68 335/1/68
f 339/1/69 340/1/69 341/1/70
f 341/1/70 342/1/70 339/1/69
f 343/1/71 344/1/71 345/1/71
f 345/1/71 346/1/71 343/1/71
f 347/1/72 348/1/72 349/1/72
f 349/1/72 350/1/72 347/1/72
f 351/1/73 352/1/74 353/1/73
f 353/1/73 354/1/73 351/1/73
f 355/1/75 356/1/75 357/1/75
f 357/1/75 358/1/75 355/1/75
f 359/1/76 360/1/76 361/1/76
f 361/1/76 362/1/76 359/1/76
f 363/1/77 364/1/77 365/1/77
f 365/1/77 366/1/77 363/1/77
f 367/1/78 368/1/78 369/1/78
f 369/1/78 370/1/78 367/1/78
f 371/1/79 372/1/79 373/1/79
f 373/1/79 374/1/79 371/1/79
f 375/1/80 376/1/80 377/1/80
f 377/1/80 378/1/80 375/1/80
f 379/1/81 380/1/81 381/1/81
f 381/1/81 382/1/81 379/1/81
f 383/1/82 384/1/82 385/1/82
f 385/1/82 386/1/82 383/1/82
f 387/1/83 388/1/83 389/1/83
f 389/1/83 390/1/83 387/1/83
f 391/1/84 392/1/84 393/1/84
f 393/1/84 394/1/84 391/1/84
f 395/1/85 396/1/85 397/1/85
f 397/1/85 398/1/85 395/1/85
f 399/1/86 400/1/86 401/1/86
f 401/1/86 402/1/86 399/1/86
f 403/1/87 404/1/87 405/1/87
f 405/1/87 406/1/87 403/1/87
f 407/1/88 408/1/88 409/1/88
f 409/1/88 410/1/88 407/1/88
f 411/1/89 412/1/89 413/1/89
f 413/1/89 414/1/89 411/1/89
f 415/1/90 416/1/90 417/1/90
f 417/1/90 418/1/90 415/1/90
f 419/1/91 420/1/91 421/1/91
f 421/1/91 422/1/91 419/1/91
f 423/1/92 424/1/92 425/1/92
f 425/1/92 426/1/92 423/1/92
f 427/1/93 428/1/93 429/1/93
f 429/1/93 430/1/93 427/1/93
f 431/1/94 432/1/94 433/1/94
f 433/1/94 434/1/94 431/1/94
f 435/1/95 436/1/95 437/1/95
f 437/1/95 438/1/95 435/1/95
f 439/1/96 440/1/96 441/1/96
f 441/1/96 442/1/96 439/1/96
f 443/1/97 444/1/97 445/1/97
f 445/1/97 446/1/97 443/1/97
f 447/1/98 448/1/98 449/1/98
f 449/1/98 450/1/98 447/1/98
f 451/1/1 452/1/99 453/1/1
f 453/1/1 454/1/1 455/1/1
f 455/1/1 456/1/1 457/1/1
f 457/1/1 458/1/1 459/1/1
f 459/1/1 460/1/1 461/1/1
f 461/1/1 462/1/1 463/1/1
f 463/1/1 464/1/100 465/1/1
f 465/1/1 466/1/101 467/1/1
f 468/1/1 469/1/102 470/1/1
f 471/1/1 472/1/99 473/1/1
f 473/1/1 474/1/1 475/1/1
f 475/1/1 476/1/1 477/1/1
f 477/1/1 478/1/1 479/1/1
f 479/1/1 480/1/1 481/1/1
f 481/1/1 482/1/1 483/1/1
f 483/1/1 484/1/1 485/1/1
f 485/1/1 486/1/1 487/1/1
f 487/1/1 488/1/1 489/1/1
f 489/1/1 490/1/1 491/1/1
f 491/1/1 492/1/1 493/1/1
f 493/1/1 494/1/1 495/1/1
f 495/1/1 496/1/1 497/1/1
f 497/1/1 498/1/1 499/1/1
f 499/1/1 500/1/1 501/1/1
f 501/1/1 502/1/103 503/1/1
f 503/1/1 504/1/104 505/1/1
f 505/1/1 451/1/1 453/1/1
f 453/1/1 455/1/1 457/1/1
f 457/1/1 459/1/1 461/1/1
f 461/1/1 463/1/1 465/1/1
f 465/1/1 467/1/1 506/1/1
f 471/1/1 473/1/1 475/1/1
f 475/1/1 477/1/1 479/1/1
f 479/1/1 481/1/1 483/1/1
f 483/1/1 485/1/1 487/1/1
f 487/1/1 489/1/1 491/1/1
f 491/1/1 493/1/1 495/1/1
f 495/1/1 497/1/1 499/1/1
f 499/1/1 501/1/1 503/1/1
f 503/1/1 505/1/1 453/1/1
f 453/1/1 457/1/1 461/1/1
f 461/1/1 465/1/1 506/1/1
f 507/1/1 471/1/1 475/1/1
f 475/1/1 479/1/1 483/1/1
f 483/1/1 487/1/1 491/1/1
f 491/1/1 495/1/1 499/1/1
f 503/1/1 453/1/1 461/1/1
f 461/1/1 506/1/1 508/1/1
f 509/1/1 507/1/1 475/1/1
f 475/1/1 483/1/1 491/1/1
f 491/1/1 499/1/1 503/1/1
f 503/1/1 461/1/1 508/1/1
f 509/1/1 475/1/1 491/1/1
f 503/1/1 508/1/1 510/1/1
f 511/1/1 509/1/1 491/1/1
f 503/1/1 510/1/1 512/1/1
f 513/1/1 511/1/1 491/1/1
f 503/1/1 512/1/1 514/1/1
f 515/1/1 513/1/1 491/1/1
f 503/1/1 514/1/1 516/1/1
f 517/1/1 515/1/1 491/1/1
f 503/1/1 516/1/1 518/1/1
f 519/1/1 517/1/1 491/1/1
f 503/1/1 518/1/1 520/1/1
f 470/1/1 519/1/1 491/1/1
f 503/1/1 520/1/1 468/1/1
f 468/1/1 470/1/1 491/1/1
f 491/1/1 503/1/1 468/1/1
f 521/1/8 522/1/105 523/1/106
f 524/1/8 525/1/8 521/1/8
f 526/1/8 527/1/8 524/1/8
f 528/1/8 529/1/8 526/1/8
f 530/1/8 531/1/8 528/1/8
f 532/1/9 533/1/107 530/1/8
f 534/1/108 535/1/109 532/1/9
f 536/1/110 537/1/8 534/1/108
f 538/1/8 539/1/111 540/1/8
f 541/1/8 542/1/8 543/1/8
f 544/1/8 545/1/8 541/1/8
f 546/1/8 547/1/8 544/1/8
f 548/1/8 549/1/8 546/1/8
f 550/1/8 551/1/8 548/1/8
f 552/1/8 553/1/8 550/1/8
f 554/1/8 555/1/8 552/1/8
f 556/1/8 557/1/8 554/1/8
f 558/1/8 559/1/8 556/1/8
f 560/1/8 561/1/8 558/1/8
f 562/1/8 563/1/8 560/1/8
f 564/1/8 565/1/8 562/1/8
f 566/1/8 567/1/8 564/1/8
f 568/1/8 569/1/8 566/1/8
f 570/1/8 571/1/8 568/1/8
f 572/1/8 573/1/112 570/1/8
f 574/1/8 575/1/113 572/1/8
f 521/1/8 523/1/106 574/1/8
f 526/1/8 524/1/8 521/1/8
f 530/1/8 528/1/8 526/1/8
f 534/1/108 532/1/9 530/1/8
f 576/1/114 536/1/110 534/1/108
f 544/1/8 541/1/8 543/1/8
f 548/1/8 546/1/8 544/1/8
f 552/1/8 550/1/8 548/1/8
f 556/1/8 554/1/8 552/1/8
f 560/1/8 558/1/8 556/1/8
f 564/1/8 562/1/8 560/1/8
f 568/1/8 566/1/8 564/1/8
f 572/1/8 570/1/8 568/1/8
f 521/1/8 574/1/8 572/1/8
f 530/1/8 526/1/8 521/1/8
f 576/1/114 534/1/108 530/1/8
f 544/1/8 543/1/8 577/1/8
f 552/1/8 548/1/8 544/1/8
f 560/1/8 556/1/8 552/1/8
f 568/1/8 564/1/8 560/1/8
f 530/1/8 521/1/8 572/1/8
f 578/1/8 576/1/114 530/1/8
f 544/1/8 577/1/8 579/1/8
f 560/1/8 552/1/8 544/1/8
f 572/1/8 568/1/8 560/1/8
f 578/1/8 530/1/8 572/1/8
f 560/1/8 544/1/8 579/1/8
f 580/1/8 578/1/8 572/1/8
f 560/1/8 579/1/8 581/1/8
f 582/1/8 580/1/8 572/1/8
f 560/1/8 581/1/8 583/1/8
f 584/1/8 582/1/8 572/1/8
f 560/1/8 583/1/8 585/1/8
f 586/1/8 584/1/8 572/1/8
f 560/1/8 585/1/8 587/1/8
f 588/1/8 586/1/8 572/1/8
f 560/1/8 587/1/8 589/1/8
f 590/1/8 588/1/8 572/1/8
f 560/1/8 589/1/8 538/1/8
f 540/1/8 590/1/8 572/1/8
f 560/1/8 538/1/8 540/1/8
f 540/1/8 572/1/8 560/1/8
f 591/1/115 592/1/116 593/1/116
f 593/1/116 594/1/115 591/1/115
f 595/1/117 591/1/115 594/1/115
f 594/1/115 596/1/117 595/1/117
f 597/1/118 598/1/118 599/1/118
f 599/1/118 600/1/118 597/1/118
f 601/1/119 602/1/119 603/1/119
f 603/1/119 604/1/119 601/1/119
f 605/1/119 606/1/119 607/1/119
f 607/1/119 608/1/119 605/1/119
f 609/1/120 610/1/120 611/1/120
f 611/1/120 612/1/120 609/1/120
f 613/1/121 614/1/121 615/1/121
f 615/1/121 616/1/121 613/1/121
f 617/1/122 618/1/122 619/1/122
f 619/1/122 620/1/122 617/1/122
f 621/1/123 622/1/123 623/1/123
f 623/1/123 624/1/123 621/1/123
f 625/1/124 626/1/124 627/1/124
f 627/1/124 628/1/124 625/1/124
f 629/1/125 630/1/125 631/1/125
f 631/1/125 632/1/125 629/1/125
f 633/1/126 634/1/126 635/1/126
f 635/1/126 636/1/126 633/1/126
f 637/1/127 638/1/127 639/1/127
f 639/1/127 640/1/127 637/1/127
f 641/1/128 642/1/128 643/1/128
f 643/1/128 644/1/128 641/1/128
f 645/1/129 646/1/129 647/1/130
f 647/1/130 648/1/129 645/1/129
f 649/1/131 650/1/131 651/1/131
f 651/1/131 652/1/131 649/1/131
f 653/1/132 654/1/132 655/1/132
f 655/1/132 656/1/132 653/1/132
f 657/1/133 658/1/133 659/1/133
f 659/1/133 660/1/133 657/1/133
f 661/1/134 662/1/134 663/1/134
f 663/1/134 664/1/134 661/1/134
f 665/1/135 666/1/135 667/1/135
f 667/1/135 668/1/135 665/1/135
f 669/1/136 670/1/136 671/1/136
f 671/1/136 672/1/136 669/1/136
f 673/1/137 674/1/137 675/1/137
f 675/1/137 676/1/137 673/1/137
f 677/1/138 678/1/138 679/1/138
f 679/1/138 680/1/138 677/1/138
f 681/1/139 682/1/139 683/1/139
f 683/1/139 684/1/139 681/1/139
f 685/1/140 686/1/140 687/1/140
f 687/1/140 688/1/140 685/1/140
f 689/1/141 690/1/141 691/1/141
f 691/1/141 692/1/141 689/1/141
f 693/1/142 694/1/142 695/1/142
f 695/1/142 696/1/142 693/1/142
f 697/1/143 698/1/143 699/1/143
f 699/1/143 700/1/143 697/1/143
f 701/1/144 702/1/144 703/1/144
f 703/1/144 704/1/144 701/1/144
f 705/1/145 706/1/145 707/1/145
f 707/1/145 708/1/145 705/1/145
f 709/1/146 710/1/146 711/1/146
f 711/1/146 712/1/146 709/1/146
f 713/1/147 714/1/147 715/1/147
f 715/1/147 716/1/147 713/1/147
f 717/1/148 718/1/148 719/1/148
f 719/1/148 720/1/148 717/1/148
f 721/1/149 722/1/149 723/1/149
f 723/1/149 724/1/149 721/1/149
f 725/1/150 726/1/150 727/1/150
f 727/1/150 728/1/150 725/1/150
f 729/1/151 730/1/151 731/1/151
f 731/1/151 732/1/151 729/1/151
f 733/1/152 734/1/152 735/1/152
f 735/1/152 736/1/152 733/1/152
f 737/1/153 738/1/153 739/1/153
f 739/1/153 740/1/153 737/1/153
f 741/1/154 742/1/154 743/1/154
f 743/1/154 744/1/154 741/1/154
f 745/1/155 746/1/155 747/1/155
f 747/1/155 748/1/155 745/1/155
f 749/1/156 750/1/156 751/1/156
f 751/1/156 752/1/156 749/1/156
f 753/1/157 754/1/157 755/1/157
f 755/1/157 756/1/157 753/1/157
f 757/1/158 758/1/158 759/1/158
f 759/1/158 760/1/158 757/1/158
f 761/1/159 762/1/160 763/1/160
f 763/1/160 764/1/159 761/1/159
f 765/1/161 761/1/159 764/1/159
f 764/1/159 766/1/162 765/1/161
f 767/1/163 765/1/161 766/1/162
f 766/1/162 768/1/163 767/1/163
f 769/1/164 770/1/164 771/1/165
f 771/1/165 772/1/165 769/1/164
f 773/1/166 774/1/167 775/1/167
f 775/1/167 776/1/166 773/1/166
f 777/1/168 773/1/166 776/1/166
f 776/1/166 778/1/168 777/1/168
f 779/1/169 780/1/169 781/1/170
f 781/1/170 782/1/170 779/1/169
f 783/1/171 784/1/171 785/1/171
f 785/1/171 786/1/171 783/1/171
f 787/1/172 788/1/172 789/1/172
f 789/1/172 790/1/172 787/1/172
f 791/1/173 792/1/173 793/1/173
f 793/1/173 794/1/173 791/1/173
f 795/1/174 796/1/174 797/1/174
f 797/1/174 798/1/174 795/1/174
f 799/1/175 800/1/175 801/1/175
f 801/1/175 802/1/175 799/1/175
f 803/1/176 804/1/176 805/1/176
f 805/1/176 806/1/176 803/1/176
f 807/1/177 808/1/177 809/1/177
f 809/1/177 810/1/177 807/1/177
f 811/1/173 812/1/173 813/1/173
f 813/1/173 814/1/173 811/1/173
f 815/1/178 816/1/179 817/1/178
f 817/1/178 818/1/178 815/1/178
f 819/1/180 820/1/180 821/1/180
f 821/1/180 822/1/180 819/1/180
f 823/1/181 824/1/181 825/1/181
f 825/1/181 826/1/181 823/1/181
f 827/1/182 828/1/182 829/1/182
f 829/1/182 830/1/182 827/1/182
f 831/1/183 832/1/183 833/1/183
f 833/1/183 834/1/183 831/1/183
f 835/1/184 836/1/184 837/1/184
f 837/1/184 838/1/184 835/1/184
f 839/1/185 840/1/185 841/1/185
f 841/1/185 842/1/185 839/1/185
f 843/1/186 844/1/186 845/1/186
f 845/1/186 846/1/186 843/1/186
f 847/1/187 848/1/187 849/1/187
f 849/1/187 850/1/187 847/1/187
f 851/1/188 852/1/188 853/1/188
f 853/1/188 854/1/188 851/1/188
f 855/1/189 856/1/189 857/1/189
f 857/1/189 858/1/189 855/1/189
f 859/1/190 860/1/190 861/1/190
f 861/1/190 862/1/190 859/1/190
f 863/2/191 864/3/191 866/4/191 865/5/191
f 865/5/8 866/4/8 870/6/8 869/7/8
f 869/7/192 870/6/192 868/8/192 867/9/192
f 867/9/1 868/8/1 864/10/1 863/11/1
f 865/12/119 869/7/119 867/9/119 863/13/119
f 870/6/193 866/14/193 864/15/193 868/8/193
f 871/2/191 872/3/191 874/4/191 873/5/191
f 873/5/1 874/4/1 878/6/1 877/7/1
f 877/7/194 878/6/194 876/8/194 875/9/194
f 875/9/8 876/8/8 872/10/8 871/11/8
f 873/12/195 877/7/195 875/9/195 871/13/195
f 878/6/196 874/14/196 872/15/196 876/8/196
f 879/1/1 880/1/1 881/1/1
f 881/1/1 882/1/1 883/1/1
f 883/1/1 884/1/1 885/1/1
f 885/1/1 886/1/2 887/1/1
f 887/1/1 888/1/3 889/1/1
f 889/1/1 890/1/4 891/1/1
f 891/1/1 892/1/5 893/1/1
f 893/1/1 894/1/197 895/1/1
f 895/1/1 896/1/1 897/1/1
f 897/1/1 898/1/198 899/1/1
f 899/1/1 900/1/1 901/1/1
f 901/1/1 902/1/1 903/1/1
f 903/1/1 904/1/1 905/1/1
f 906/1/1 907/1/4 908/1/1
f 908/1/1 909/1/1 910/1/1
f 910/1/1 911/1/1 912/1/1
f 912/1/1 913/1/1 914/1/1
f 914/1/1 915/1/1 916/1/1
f 916/1/1 917/1/1 918/1/1
f 919/1/1 920/1/1 921/1/1
f 921/1/1 922/1/1 923/1/1
f 923/1/1 924/1/1 925/1/1
f 925/1/1 926/1/1 927/1/1
f 927/1/1 928/1/1 879/1/1
f 879/1/1 881/1/1 883/1/1
f 883/1/1 885/1/1 887/1/1
f 887/1/1 889/1/1 891/1/1
f 891/1/1 893/1/1 895/1/1
f 895/1/1 897/1/1 899/1/1
f 899/1/1 901/1/1 903/1/1
f 903/1/1 905/1/1 929/1/1
f 906/1/1 908/1/1 910/1/1
f 910/1/1 912/1/1 914/1/1
f 914/1/1 916/1/1 918/1/1
f 930/1/1 919/1/1 921/1/1
f 921/1/1 923/1/1 925/1/1
f 925/1/1 927/1/1 879/1/1
f 879/1/1 883/1/1 887/1/1
f 887/1/1 891/1/1 895/1/1
f 895/1/1 899/1/1 903/1/1
f 903/1/1 929/1/1 931/1/1
f 906/1/1 910/1/1 914/1/1
f 914/1/1 918/1/1 932/1/1
f 930/1/1 921/1/1 925/1/1
f 925/1/1 879/1/1 887/1/1
f 887/1/1 895/1/1 903/1/1
f 903/1/1 931/1/1 933/1/1
f 933/1/1 906/1/1 914/1/1
f 934/1/1 930/1/1 925/1/1
f 925/1/1 887/1/1 903/1/1
f 903/1/1 933/1/1 914/1/1
f 935/1/1 934/1/1 925/1/1
f 903/1/1 914/1/1 932/1/1
f 936/1/1 935/1/1 925/1/1
f 903/1/1 932/1/1 937/1/1
f 938/1/1 936/1/1 925/1/1
f 903/1/1 937/1/1 939/1/1
f 940/1/1 938/1/1 925/1/1
f 903/1/1 939/1/1 941/1/1
f 942/1/1 940/1/1 925/1/1
f 903/1/1 941/1/1 943/1/1
f 944/1/1 942/1/1 925/1/1
f 903/1/1 943/1/1 945/1/1
f 946/1/1 944/1/1 925/1/1
f 903/1/1 945/1/1 947/1/1
f 948/1/1 946/1/1 925/1/1
f 903/1/1 947/1/1 949/1/1
f 948/1/1 925/1/1 903/1/1
f 903/1/1 949/1/1 950/1/1
f 951/1/1 948/1/1 903/1/1
f 903/1/1 950/1/1 952/1/1
f 953/1/1 951/1/1 903/1/1
f 903/1/1 952/1/1 953/1/1
f 954/1/8 955/1/8 956/1/8
f 957/1/8 958/1/8 954/1/8
f 959/1/8 960/1/9 957/1/8
f 961/1/8 962/1/10 959/1/8
f 963/1/8 964/1/11 961/1/8
f 965/1/8 966/1/12 963/1/8
f 967/1/13 968/1/14 965/1/8
f 969/1/8 970/1/15 967/1/13
f 971/1/8 972/1/16 969/1/8
f 973/1/8 974/1/17 971/1/8
f 975/1/8 976/1/8 973/1/8
f 977/1/8 978/1/18 975/1/8
f 979/1/8 980/1/8 977/1/8
f 981/1/8 982/1/19 983/1/8
f 984/1/8 985/1/8 981/1/8
f 986/1/8 987/1/8 984/1/8
f 988/1/8 989/1/8 986/1/8
f 990/1/8 991/1/8 988/1/8
f 992/1/8 993/1/8 990/1/8
f 994/1/8 995/1/8 996/1/8
f 997/1/8 998/1/8 994/1/8
f 999/1/8 1000/1/8 997/1/8
f 1001/1/8 1002/1/8 999/1/8
f 956/1/8 1003/1/8 1001/1/8
f 957/1/8 954/1/8 956/1/8
f 961/1/8 959/1/8 957/1/8
f 965/1/8 963/1/8 961/1/8
f 969/1/8 967/1/13 965/1/8
f 973/1/8 971/1/8 969/1/8
f 977/1/8 975/1/8 973/1/8
f 1004/1/8 979/1/8 977/1/8
f 984/1/8 981/1/8 983/1/8
f 988/1/8 986/1/8 984/1/8
f 992/1/8 990/1/8 988/1/8
f 994/1/8 996/1/8 1005/1/8
f 999/1/8 997/1/8 994/1/8
f 956/1/8 1001/1/8 999/1/8
f 961/1/8 957/1/8 956/1/8
f 969/1/8 965/1/8 961/1/8
f 977/1/8 973/1/8 969/1/8
f 1006/1/8 1004/1/8 977/1/8
f 988/1/8 984/1/8 983/1/8
f 1007/1/8 992/1/8 988/1/8
f 999/1/8 994/1/8 1005/1/8
f 961/1/8 956/1/8 999/1/8
f 977/1/8 969/1/8 961/1/8
f 1008/1/8 1006/1/8 977/1/8
f 988/1/8 983/1/8 1008/1/8
f 999/1/8 1005/1/8 1009/1/8
f 977/1/8 961/1/8 999/1/8
f 988/1/8 1008/1/8 977/1/8
f 999/1/8 1009/1/8 1010/1/8
f 1007/1/8 988/1/8 977/1/8
f 999/1/8 1010/1/8 1011/1/8
f 1012/1/8 1007/1/8 977/1/8
f 999/1/8 1011/1/8 1013/1/8
f 1014/1/8 1012/1/8 977/1/8
f 999/1/8 1013/1/8 1015/1/8
f 1016/1/8 1014/1/8 977/1/8
f 999/1/8 1015/1/8 1017/1/8
f 1018/1/8 1016/1/8 977/1/8
f 999/1/8 1017/1/8 1019/1/8
f 1020/1/8 1018/1/8 977/1/8
f 999/1/8 1019/1/8 1021/1/8
f 1022/1/8 1020/1/8 977/1/8
f 999/1/8 1021/1/8 1023/1/8
f 1024/1/8 1022/1/8 977/1/8
f 977/1/8 999/1/8 1023/1/8
f 1025/1/8 1024/1/8 977/1/8
f 977/1/8 1023/1/8 1026/1/8
f 1027/1/8 1025/1/8 977/1/8
f 977/1/8 1026/1/8 1028/1/8
f 1028/1/8 1027/1/8 977/1/8
f 1029/1/20 1030/1/20 1031/1/20
f 1031/1/20 1032/1/20 1029/1/20
f 1033/1/21 1034/1/21 1035/1/21
f 1035/1/21 1036/1/21 1033/1/21
f 1037/1/22 1038/1/22 1039/1/22
f 1039/1/22 1040/1/22 1037/1/22
f 1041/1/23 1042/1/23 1043/1/23
f 1043/1/23 1044/1/23 1041/1/23
f 1045/1/24 1046/1/24 1047/1/24
f 1047/1/24 1048/1/24 1045/1/24
f 1049/1/25 1050/1/25 1051/1/25
f 1051/1/25 1052/1/25 1049/1/25
f 1053/1/26 1054/1/26 1055/1/26
f 1055/1/26 1056/1/26 1053/1/26
f 1057/1/27 1058/1/27 1059/1/27
f 1059/1/27 1060/1/27 1057/1/27
f 1061/1/28 1062/1/28 1063/1/28
f 1063/1/28 1064/1/28 1061/1/28
f 1065/1/29 1066/1/30 1067/1/30
f 1067/1/30 1068/1/30 1065/1/29
f 1069/1/31 1070/1/31 1071/1/31
f 1071/1/31 1072/1/31 1069/1/31
f 1073/1/32 1074/1/32 1075/1/32
f 1075/1/32 1076/1/32 1073/1/32
f 1077/1/33 1078/1/33 1079/1/33
f 1079/1/33 1080/1/33 1077/1/33
f 1081/1/34 1082/1/34 1083/1/34
f 1083/1/34 1084/1/34 1081/1/34
f 1085/1/35 1086/1/35 1087/1/35
f 1087/1/35 1088/1/35 1085/1/35
f 1089/1/36 1090/1/36 1091/1/36
f 1091/1/36 1092/1/36 1089/1/36
f 1093/1/37 1094/1/37 1095/1/37
f 1095/1/37 1096/1/37 1093/1/37
f 1097/1/38 1098/1/38 1099/1/38
f 1099/1/38 1100/1/38 1097/1/38
f 1101/1/39 1102/1/39 1103/1/39
f 1103/1/39 1104/1/39 1101/1/39
f 1105/1/40 1106/1/40 1107/1/40
f 1107/1/40 1108/1/40 1105/1/40
f 1109/1/41 1110/1/41 1111/1/41
f 1111/1/41 1112/1/41 1109/1/41
f 1113/1/42 1114/1/42 1115/1/42
f 1115/1/42 1116/1/42 1113/1/42
f 1117/1/43 1118/1/43 1119/1/43
f 1119/1/43 1120/1/43 1117/1/43
f 1121/1/44 1122/1/44 1123/1/44
f 1123/1/44 1124/1/44 1121/1/44
f 1125/1/45 1126/1/45 1127/1/45
f 1127/1/45 1128/1/45 1125/1/45
f 1129/1/46 1130/1/46 1131/1/46
f 1131/1/46 1132/1/46 1129/1/46
f 1133/1/47 1134/1/47 1135/1/47
f 1135/1/47 1136/1/47 1133/1/47
f 1137/1/48 1138/1/48 1139/1/48
f 1139/1/48 1140/1/48 1137/1/48
f 1141/1/49 1142/1/49 1143/1/49
f 1143/1/49 1144/1/49 1141/1/49
f 1145/1/50 1146/1/50 1147/1/50
f 1147/1/50 1148/1/50 1145/1/50
f 1149/1/51 1150/1/51 1151/1/51
f 1151/1/51 1152/1/51 1149/1/51
f 1153/1/52 1154/1/52 1155/1/52
f 1155/1/52 1156/1/52 1153/1/52
f 1157/1/53 1158/1/53 1159/1/53
f 1159/1/53 1160/1/53 1157/1/53
f 1161/1/54 1162/1/54 1163/1/54
f 1163/1/54 1164/1/54 1161/1/54
f 1165/1/55 1166/1/55 1167/1/55
f 1167/1/55 1168/1/55 1165/1/55
f 1169/1/56 1170/1/56 1171/1/56
f 1171/1/56 1172/1/56 1169/1/56
f 1173/1/57 1174/1/57 1175/1/57
f 1175/1/57 1176/1/57 1173/1/57
f 1177/1/58 1178/1/58 1179/1/58
f 1179/1/58 1180/1/58 1177/1/58
f 1181/1/59 1182/1/59 1183/1/59
f 1183/1/59 1184/1/59 1181/1/59
f 1185/1/60 1186/1/60 1187/1/60
f 1187/1/60 1188/1/60 1185/1/60
f 1189/1/61 1190/1/61 1191/1/61
f 1191/1/61 1192/1/61 1189/1/61
f 1193/1/62 1194/1/62 1195/1/63
f 1195/1/63 1196/1/63 1193/1/62
f 1197/1/64 1198/1/64 1199/1/64
f 1199/1/64 1200/1/64 1197/1/64
f 1201/1/65 1202/1/65 1203/1/65
f 1203/1/65 1204/1/65 1201/1/65
f 1205/1/66 1206/1/66 1207/1/66
f 1207/1/66 1208/1/66 1205/1/66
f 1209/1/67 1210/1/67 1211/1/67
f 1211/1/67 1212/1/67 1209/1/67
f 1213/1/68 1214/1/68 1215/1/68
f 1215/1/68 1216/1/68 1213/1/68
f 1217/1/69 1218/1/69 1219/1/70
f 1219/1/70 1220/1/70 1217/1/69
f 1221/1/71 1222/1/71 1223/1/71
f 1223/1/71 1224/1/71 1221/1/71
f 1225/1/72 1226/1/72 1227/1/72
f 1227/1/72 1228/1/72 1225/1/72
f 1229/1/73 1230/1/74 1231/1/73
f 1231/1/73 1232/1/73 1229/1/73
f 1233/1/75 1234/1/75 1235/1/75
f 1235/1/75 1236/1/75 1233/1/75
f 1237/1/76 1238/1/76 1239/1/76
f 1239/1/76 1240/1/76 1237/1/76
f 1241/1/77 1242/1/77 1243/1/77
f 1243/1/77 1244/1/77 1241/1/77
f 1245/1/78 1246/1/78 1247/1/78
f 1247/1/78 1248/1/78 1245/1/78
f 1249/1/79 1250/1/79 1251/1/79
f 1251/1/79 1252/1/79 1249/1/79
f 1253/1/80 1254/1/80 1255/1/80
f 1255/1/80 1256/1/80 1253/1/80
f 1257/1/81 1258/1/81 1259/1/81
f 1259/1/81 1260/1/81 1257/1/81
f 1261/1/82 1262/1/82 1263/1/82
f 1263/1/82 1264/1/82 1261/1/82
f 1265/1/83 1266/1/83 1267/1/83
f 1267/1/83 1268/1/83 1265/1/83
f 1269/1/84 1270/1/84 1271/1/84
f 1271/1/84 1272/1/84 1269/1/84
f 1273/1/85 1274/1/85 1275/1/85
f 1275/1/85 1276/1/85 1273/1/85
f 1277/1/86 1278/1/86 1279/1/86
f 1279/1/86 1280/1/86 1277/1/86
f 1281/1/87 1282/1/87 1283/1/87
f 1283/1/87 1284/1/87 1281/1/87
f 1285/1/88 1286/1/88 1287/1/88
f 1287/1/88 1288/1/88 1285/1/88
f 1289/1/89 1290/1/89 1291/1/89
f 1291/1/89 1292/1/89 1289/1/89
f 1293/1/90 1294/1/90 1295/1/90
f 1295/1/90 1296/1/90 1293/1/90
f 1297/1/91 1298/1/91 1299/1/91
f 1299/1/91 1300/1/91 1297/1/91
f 1301/1/92 1302/1/92 1303/1/92
f 1303/1/92 1304/1/92 1301/1/92
f 1305/1/93 1306/1/93 1307/1/93
f 1307/1/93 1308/1/93 1305/1/93
f 1309/1/94 1310/1/94 1311/1/94
f 1311/1/94 1312/1/94 1309/1/94
f 1313/1/95 1314/1/95 1315/1/95
f 1315/1/95 1316/1/95 1313/1/95
f 1317/1/96 1318/1/96 1319/1/96
f 1319/1/96 1320/1/96 1317/1/96
f 1321/1/97 1322/1/97 1323/1/97
f 1323/1/97 1324/1/97 1321/1/97
f 1325/1/98 1326/1/98 1327/1/98
f 1327/1/98 1328/1/98 1325/1/98
f 1329/1/1 1330/1/99 1331/1/1
f 1331/1/1 1332/1/1 1333/1/1
f 1333/1/1 1334/1/1 1335/1/1
f 1335/1/1 1336/1/1 1337/1/1
f 1337/1/1 1338/1/1 1339/1/1
f 1339/1/1 1340/1/1 1341/1/1
f 1341/1/1 1342/1/100 1343/1/1
f 1343/1/1 1344/1/101 1345/1/1
f 1346/1/1 1347/1/199 1348/1/1
f 1349/1/1 1350/1/99 1351/1/1
f 1351/1/1 1352/1/1 1353/1/1
f 1353/1/1 1354/1/1 1355/1/1
f 1355/1/1 1356/1/1 1357/1/1
f 1357/1/1 1358/1/1 1359/1/1
f 1359/1/1 1360/1/1 1361/1/1
f 1361/1/1 1362/1/1 1363/1/1
f 1363/1/1 1364/1/1 1365/1/1
f 1365/1/1 1366/1/1 1367/1/1
f 1367/1/1 1368/1/1 1369/1/1
f 1369/1/1 1370/1/1 1371/1/1
f 1371/1/1 1372/1/1 1373/1/1
f 1373/1/1 1374/1/1 1375/1/1
f 1375/1/1 1376/1/1 1377/1/1
f 1377/1/1 1378/1/1 1379/1/1
f 1379/1/1 1380/1/103 1381/1/1
f 1381/1/1 1382/1/104 1383/1/1
f 1383/1/1 1329/1/1 1331/1/1
f 1331/1/1 1333/1/1 1335/1/1
f 1335/1/1 1337/1/1 1339/1/1
f 1339/1/1 1341/1/1 1343/1/1
f 1343/1/1 1345/1/1 1384/1/1
f 1349/1/1 1351/1/1 1353/1/1
f 1353/1/1 1355/1/1 1357/1/1
f 1357/1/1 1359/1/1 1361/1/1
f 1361/1/1 1363/1/1 1365/1/1
f 1365/1/1 1367/1/1 1369/1/1
f 1369/1/1 1371/1/1 1373/1/1
f 1373/1/1 1375/1/1 1377/1/1
f 1377/1/1 1379/1/1 1381/1/1
f 1381/1/1 1383/1/1 1331/1/1
f 1331/1/1 1335/1/1 1339/1/1
f 1339/1/1 1343/1/1 1384/1/1
f 1385/1/1 1349/1/1 1353/1/1
f 1353/1/1 1357/1/1 1361/1/1
f 1361/1/1 1365/1/1 1369/1/1
f 1369/1/1 1373/1/1 1377/1/1
f 1381/1/1 1331/1/1 1339/1/1
f 1339/1/1 1384/1/1 1386/1/1
f 1387/1/1 1385/1/1 1353/1/1
f 1353/1/1 1361/1/1 1369/1/1
f 1369/1/1 1377/1/1 1381/1/1
f 1381/1/1 1339/1/1 1386/1/1
f 1387/1/1 1353/1/1 1369/1/1
f 1381/1/1 1386/1/1 1388/1/1
f 1389/1/1 1387/1/1 1369/1/1
f 1381/1/1 1388/1/1 1390/1/1
f 1391/1/1 1389/1/1 1369/1/1
f 1381/1/1 1390/1/1 1392/1/1
f 1393/1/1 1391/1/1 1369/1/1
f 1381/1/1 1392/1/1 1394/1/1
f 1395/1/1 1393/1/1 1369/1/1
f 1381/1/1 1394/1/1 1396/1/1
f 1397/1/1 1395/1/1 1369/1/1
f 1381/1/1 1396/1/1 1398/1/1
f 1348/1/1 1397/1/1 1369/1/1
f 1381/1/1 1398/1/1 1346/1/1
f 1346/1/1 1348/1/1 1369/1/1
f 1369/1/1 1381/1/1 1346/1/1
f 1399/1/8 1400/1/105 1401/1/106
f 1402/1/8 1403/1/8 1399/1/8
f 1404/1/8 1405/1/8 1402/1/8
f 1406/1/8 1407/1/8 1404/1/8
f 1408/1/8 1409/1/8 1406/1/8
f 1410/1/9 1411/1/107 1408/1/8
f 1412/1/108 1413/1/109 1410/1/9
f 1414/1/110 1415/1/8 1412/1/108
f 1416/1/8 1417/1/111 1418/1/8
f 1419/1/8 1420/1/8 1421/1/8
f 1422/1/8 1423/1/8 1419/1/8
f 1424/1/8 1425/1/8 1422/1/8
f 1426/1/8 1427/1/8 1424/1/8
f 1428/1/8 1429/1/8 1426/1/8
f 1430/1/8 1431/1/8 1428/1/8
f 1432/1/8 1433/1/8 1430/1/8
f 1434/1/8 1435/1/8 1432/1/8
f 1436/1/8 1437/1/8 1434/1/8
f 1438/1/8 1439/1/8 1436/1/8
f 1440/1/8 1441/1/8 1438/1/8
f 1442/1/8 1443/1/8 1440/1/8
f 1444/1/8 1445/1/8 1442/1/8
f 1446/1/8 1447/1/8 1444/1/8
f 1448/1/8 1449/1/8 1446/1/8
f 1450/1/8 1451/1/112 1448/1/8
f 1452/1/8 1453/1/113 1450/1/8
f 1399/1/8 1401/1/106 1452/1/8
f 1404/1/8 1402/1/8 1399/1/8
f 1408/1/8 1406/1/8 1404/1/8
f 1412/1/108 1410/1/9 1408/1/8
f 1454/1/114 1414/1/110 1412/1/108
f 1422/1/8 1419/1/8 1421/1/8
f 1426/1/8 1424/1/8 1422/1/8
f 1430/1/8 1428/1/8 1426/1/8
f 1434/1/8 1432/1/8 1430/1/8
f 1438/1/8 1436/1/8 1434/1/8
f 1442/1/8 1440/1/8 1438/1/8
f 1446/1/8 1444/1/8 1442/1/8
f 1450/1/8 1448/1/8 1446/1/8
f 1399/1/8 1452/1/8 1450/1/8
f 1408/1/8 1404/1/8 1399/1/8
f 1454/1/114 1412/1/108 1408/1/8
f 1422/1/8 1421/1/8 1455/1/8
f 1430/1/8 1426/1/8 1422/1/8
f 1438/1/8 1434/1/8 1430/1/8
f 1446/1/8 1442/1/8 1438/1/8
f 1408/1/8 1399/1/8 1450/1/8
f 1456/1/8 1454/1/114 1408/1/8
f 1422/1/8 1455/1/8 1457/1/8
f 1438/1/8 1430/1/8 1422/1/8
f 1450/1/8 1446/1/8 1438/1/8
f 1456/1/8 1408/1/8 1450/1/8
f 1438/1/8 1422/1/8 1457/1/8
f 1458/1/8 1456/1/8 1450/1/8
f 1438/1/8 1457/1/8 1459/1/8
f 1460/1/8 1458/1/8 1450/1/8
f 1438/1/8 1459/1/8 1461/1/8
f 1462/1/8 1460/1/8 1450/1/8
f 1438/1/8 1461/1/8 1463/1/8
f 1464/1/8 1462/1/8 1450/1/8
f 1438/1/8 1463/1/8 1465/1/8
f 1466/1/8 1464/1/8 1450/1/8
f 1438/1/8 1465/1/8 1467/1/8
f 1468/1/8 1466/1/8 1450/1/8
f 1438/1/8 1467/1/8 1416/1/8
f 1418/1/8 1468/1/8 1450/1/8
f 1438/1/8 1416/1/8 1418/1/8
f 1418/1/8 1450/1/8 1438/1/8
f 1469/1/115 1470/1/116 1471/1/116
f 1471/1/116 1472/1/115 1469/1/115
f 1473/1/117 1469/1/115 1472/1/115
f 1472/1/115 1474/1/117 1473/1/117
f 1475/1/118 1476/1/118 1477/1/118
f 1477/1/118 1478/1/118 1475/1/118
f 1479/1/119 1480/1/119 1481/1/119
f 1481/1/119 1482/1/119 1479/1/119
f 1483/1/119 1484/1/119 1485/1/119
f 1485/1/119 1486/1/119 1483/1/119
f 1487/1/120 1488/1/120 1489/1/120
f 1489/1/120 1490/1/120 1487/1/120
f 1491/1/121 1492/1/121 1493/1/121
f 1493/1/121 1494/1/121 1491/1/121
f 1495/1/122 1496/1/122 1497/1/122
f 1497/1/122 1498/1/122 1495/1/122
f 1499/1/123 1500/1/123 1501/1/123
f 1501/1/123 1502/1/123 1499/1/123
f 1503/1/124 1504/1/124 1505/1/124
f 1505/1/124 1506/1/124 1503/1/124
f 1507/1/125 1508/1/125 1509/1/125
f 1509/1/125 1510/1/125 1507/1/125
f 1511/1/126 1512/1/126 1513/1/126
f 1513/1/126 1514/1/126 1511/1/126
f 1515/1/127 1516/1/127 1517/1/127
f 1517/1/127 1518/1/127 1515/1/127
f 1519/1/128 1520/1/128 1521/1/128
f 1521/1/128 1522/1/128 1519/1/128
f 1523/1/129 1524/1/129 1525/1/129
f 1525/1/129 1526/1/129 1523/1/129
f 1527/1/131 1528/1/131 1529/1/131
f 1529/1/131 1530/1/131 1527/1/131
f 1531/1/132 1532/1/132 1533/1/132
f 1533/1/132 1534/1/132 1531/1/132
f 1535/1/133 1536/1/133 1537/1/133
f 1537/1/133 1538/1/133 1535/1/133
f 1539/1/134 1540/1/134 1541/1/134
f 1541/1/134 1542/1/134 1539/1/134
f 1543/1/135 1544/1/135 1545/1/135
f 1545/1/135 1546/1/135 1543/1/135
f 1547/1/136 1548/1/136 1549/1/136
f 1549/1/136 1550/1/136 1547/1/136
f 1551/1/137 1552/1/137 1553/1/137
f 1553/1/137 1554/1/137 1551/1/137
f 1555/1/138 1556/1/138 1557/1/138
f 1557/1/138 1558/1/138 1555/1/138
f 1559/1/139 1560/1/139 1561/1/139
f 1561/1/139 1562/1/139 1559/1/139
f 1563/1/140 1564/1/140 1565/1/140
f 1565/1/140 1566/1/140 1563/1/140
f 1567/1/141 1568/1/141 1569/1/141
f 1569/1/141 1570/1/141 1567/1/141
f 1571/1/142 1572/1/142 1573/1/142
f 1573/1/142 1574/1/142 1571/1/142
f 1575/1/143 1576/1/143 1577/1/143
f 1577/1/143 1578/1/143 1575/1/143
f 1579/1/144 1580/1/144 1581/1/144
f 1581/1/144 1582/1/144 1579/1/144
f 1583/1/145 1584/1/145 1585/1/145
f 1585/1/145 1586/1/145 1583/1/145
f 1587/1/146 1588/1/146 1589/1/146
f 1589/1/146 1590/1/146 1587/1/146
f 1591/1/147 1592/1/147 1593/1/147
f 1593/1/147 1594/1/147 1591/1/147
f 1595/1/148 1596/1/148 1597/1/148
f 1597/1/148 1598/1/148 1595/1/148
f 1599/1/149 1600/1/149 1601/1/149
f 1601/1/149 1602/1/149 1599/1/149
f 1603/1/150 1604/1/150 1605/1/150
f 1605/1/150 1606/1/150 1603/1/150
f 1607/1/151 1608/1/151 1609/1/151
f 1609/1/151 1610/1/151 1607/1/151
f 1611/1/152 1612/1/152 1613/1/152
f 1613/1/152 1614/1/152 1611/1/152
f 1615/1/153 1616/1/153 1617/1/153
f 1617/1/153 1618/1/153 1615/1/153
f 1619/1/154 1620/1/154 1621/1/154
f 1621/1/154 1622/1/154 1619/1/154
f 1623/1/155 1624/1/155 1625/1/155
f 1625/1/155 1626/1/155 1623/1/155
f 1627/1/156 1628/1/156 1629/1/156
f 1629/1/156 1630/1/156 1627/1/156
f 1631/1/157 1632/1/157 1633/1/157
f 1633/1/157 1634/1/157 1631/1/157
f 1635/1/158 1636/1/158 1637/1/158
f 1637/1/158 1638/1/158 1635/1/158
f 1639/1/159 1640/1/160 1641/1/160
f 1641/1/160 1642/1/159 1639/1/159
f 1643/1/161 1639/1/159 1642/1/159
f 1642/1/159 1644/1/162 1643/1/161
f 1645/1/163 1643/1/161 1644/1/162
f 1644/1/162 1646/1/163 1645/1/163
f 1647/1/164 1648/1/164 1649/1/165
f 1649/1/165 1650/1/165 1647/1/164
f 1651/1/166 1652/1/167 1653/1/167
f 1653/1/167 1654/1/166 1651/1/166
f 1655/1/168 1651/1/166 1654/1/166
f 1654/1/166 1656/1/168 1655/1/168
f 1657/1/169 1658/1/169 1659/1/170
f 1659/1/170 1660/1/170 1657/1/169
f 1661/1/171 1662/1/171 1663/1/171
f 1663/1/171 1664/1/171 1661/1/171
f 1665/1/172 1666/1/172 1667/1/172
f 1667/1/172 1668/1/172 1665/1/172
f 1669/1/173 1670/1/173 1671/1/173
f 1671/1/173 1672/1/173 1669/1/173
f 1673/1/174 1674/1/174 1675/1/174
f 1675/1/174 1676/1/174 1673/1/174
f 1677/1/175 1678/1/175 1679/1/175
f 1679/1/175 1680/1/175 1677/1/175
f 1681/1/176 1682/1/176 1683/1/176
f 1683/1/176 1684/1/176 1681/1/176
f 1685/1/177 1686/1/177 1687/1/177
f 1687/1/177 1688/1/177 1685/1/177
f 1689/1/173 1690/1/173 1691/1/173
f 1691/1/173 1692/1/173 1689/1/173
f 1693/1/178 1694/1/179 1695/1/178
f 1695/1/178 1696/1/178 1693/1/178
f 1697/1/180 1698/1/180 1699/1/180
f 1699/1/180 1700/1/180 1697/1/180
f 1701/1/181 1702/1/181 1703/1/181
f 1703/1/181 1704/1/181 1701/1/181
f 1705/1/182 1706/1/182 1707/1/182
f 1707/1/182 1708/1/182 1705/1/182
f 1709/1/183 1710/1/183 1711/1/183
f 1711/1/183 1712/1/183 1709/1/183
f 1713/1/184 1714/1/184 1715/1/184
f 1715/1/184 1716/1/184 1713/1/184
f 1717/1/185 1718/1/185 1719/1/185
f 1719/1/185 1720/1/185 1717/1/185
f 1721/1/186 1722/1/186 1723/1/186
f 1723/1/186 1724/1/186 1721/1/186
f 1725/1/187 1726/1/187 1727/1/187
f 1727/1/187 1728/1/187 1725/1/187
f 1729/1/188 1730/1/188 1731/1/188
f 1731/1/188 1732/1/188 1729/1/188
f 1733/1/189 1734/1/189 1735/1/189
f 1735/1/189 1736/1/189 1733/1/189
f 1737/1/190 1738/1/190 1739/1/190
f 1739/1/190 1740/1/190 1737/1/190
o Plane.001
